<mxfile host="app.diagrams.net" agent="Mozilla/5.0 (Windows NT 10.0; Win64; x64) AppleWebKit/537.36 (KHTML, like Gecko) Chrome/135.0.0.0 Safari/537.36 Edg/135.0.0.0" version="26.2.8">
  <diagram id="cfaZjpHnSRkFS8nnBmAR" name="第 1 页">
    <mxGraphModel dx="1312" dy="561" grid="0" gridSize="10" guides="1" tooltips="1" connect="1" arrows="1" fold="1" page="0" pageScale="1" pageWidth="827" pageHeight="1169" math="0" shadow="0">
      <root>
        <mxCell id="0" />
        <mxCell id="1" parent="0" />
        <mxCell id="ob-IkZe3Byg3iUuScjMG-3" value="" style="shape=image;verticalLabelPosition=bottom;labelBackgroundColor=default;verticalAlign=top;imageAspect=0;image=data:image/png,iVBORw0KGgoAAAANSUhEUgAABFwAAAMDCAMAAACo2PFXAAAB8lBMVEUAAAAAADUAADoAAF4AAGYANV4ANYQAOjoAOmYAOpAAXqgAZpAAZrY1AAA1hMk6AAA6OgA6Ojo6OmY6ZpA6ZrY6kJA6kLY6kNtGgrRNTU1NTW5NTY5Nbm5Nbo5NbqtNjsheAABeNQBeqMleqOtmAABmOgBmOjpmOmZmZgBmZjpmZmZmZpBmkLZmkNtmtrZmtttmtv9uTU1ubk1ubm5ubo5ujo5ujqtujshuq8huq+SENQCEyeuOTU2Obk2Obm6Ojk2Ojm6OjquOq6uOq8iOq+SOyOSOyP+QOgCQOjqQOmaQZjqQZmaQZpCQkLaQtpCQtraQttuQtv+Q25CQ27aQ29uQ2/+oXgCohDWoyeuo6+urbk2rjk2rjm6ryOSr5OSr5P+2ZgC2Zjq2kDq2kGa2kJC2tma2tpC2tra2ttu225C229u22/+2/9u2///Ijk3Ijm7Iq27Iq47Iq6vIyKvIyMjI5KvI5MjI5OTI5P/I/8jI/+TI///JhDXJqF7J6+vbkDrbkGbbtmbbtpDb25Db27bb29vb2//b/9vb///kq27kq47kyI7kyKvkyMjk5Kvk5OTk5P/k/+Tk///rqF7ryajr66jr68nr6+v/pQD/tmb/yI7/25D/27b/29v/5Kv/5Mj/5OT//7b//8j//9v//+T////bnuz8AAAACXBIWXMAABkRAAAZEQGQh6VoAAAgAElEQVR4nO3d/WMb933Y8QunVlSnBfLDooBKpDQR3bWxI3FZ6yqT026exVVbNm+N0k5zK8jytsyamHhP1ea0MDXHleq03bTFDElJLgXe/7l7fgDuQNzxc/h88MX79YNEHJ9gfj98++5wgDwfADrgad8BAG4iLgA6QVwAdIK4AOgEcQHQCeICoBPEBUAniAuAThAXAJ0gLgA6QVwAdIK4AOgEcQHQCeKyAEabnuedehjf2PVCp5N3DeL37PeCvy+3/fof/SuBO3mUg4vBXTw7h28EK4jLIhgGv5cn7sVvD6K4JLfS39jjxOXJevssNUBclg5xWQTh3srKjejN6Hc0u5VG5Rhx+ah3jH2eBojL0iEui6DwixllJLtV3KVp53gHVA0Ql6VDXBZBdNIlPs0yjNuS3BoUTsa0Q1zQFeKyEIZpRKLMeOktgV9Y4oKuEJeFkJ10iX5Ff6OX3MrKkL0Rxid414NXgtsvvl/xlR68En7oyovfi/Z30v2g5Nf+4+tnwrdfeOmuX67B7tjhV/i+lRujO8GHr0Qf7Md7UZef/NPwG0dbRndeCN4+mb47+XLhPcs+BU4jLgsh+s0M4xFV5vfTW9kpl3Jcvr9ZLEbp66xnNYnqVIpLtleUfGbhmGtQePQ7vT8r/zL5YiuXso/51sXsoayPeunXevlh9p/wpdt19wzuIS4LITvpEv/CD0q3/LG4FFyu+DLFupTiMhj7zPwxqqxtqeQxq9K3GRS/VuErFw/hyvWC24jLYkhOuiTHFsmtqBXRb+lYXIJ9idG73tjehp8c3Xw/eGO7l74zP+cSvRXuZWwnn1n+8qUHpeJShLssD3rprsqgsBcTX+p36m7hbox9SvJYOhxGXBZDctJjPz7bUv7LH49LtK10WW9ikO2ADE9+84cPS5/p+0/feyX++HSHKDuNPBzvVFyKvEnpUVS6QxLvaUVfbDu5Q1WfAqcRl8WQHJgkJ1mSW/lp1nJc8kSMXQMzmOxN1aNF6Yel8Yq+aOljojtQOB8Tvjko7I8UrvpLj+iqPgVOIy6LIT5EKZ16OV04zVqOS35FzFhc4hMhq9/7JN80EZen//6V9DxJelw0cVRUeiQp/T7FmBXrUT6iq7trcA9xWRDRkUnpQaNTf56dE5kal930HOrpwgndF99OfvVLcfn4n51JPyBKw278xu7E2Zuqh6mLQRkUPmO3tLeVbeKki/OIy4KIfkX/nVe4wGXlX2enXMbiUn5qQCEuxYeLVr40fs5lP3+cuvAIT/AdBhNHTuNxCe9GIS6FxGXvJy5Lh7gsiOj3/IxXvFD3N/KDi1nj4vtPrvdKt8ceLQr2ab53N89E+NbZ8FuPHcS03XOpuSYPTiIuC2JUvjBuUAxEk7j44VmVX486Ur7INz4h+3b6VpyJ6Lhoe+KoKC5Fsq14zqUYl6pzLmOfAqcRl0WRXJWWHE2kxUh2BabFpeDpg+tn4iOT7YknDhT2LPI0RPtLvz5xVBR/cPLF048uBoVHi0BcFkeSk+JxUH7iYra4FH6/szMgFXEpZmBY+q7lr1S4fm/s2QLJbkrFdS7lT4HTiMuiSC6fTw4skqOk9Jd+xj2X6GDqpU98/8lm+s6kKaNP4svv0gto00wkERs7KkrvzJcejl2hm+2ORFGquEK3/ClwGnFZFElO0uOTYemXfsa4HBQfD4o/LD2XczY/N1PMVvJ0gvFHduqeW5Qf69wuvLvquUXzeJUH6CIuC2NY+jXfzfvgzxwXf3Q9++1eea34hcJMpT1Y+VbhitxhYTcmF+/vpKeB8mdFFz6w6lnRJ/5jr/QpcBpxWRi7pV/z6Nc7S82scQkfio5fsuXVLAPRa7+88Grw1sfhWyeD9wy88uNQky/dUPHiLGNx8UfvxV/uk/xTTtyLXwLm5U/GvyAcRFwwVXIdXcVWTsliOuKCqYZe1aPGxAVHIy6YZrv6UWPigqMRF9QalB44KiIuOBpxQa04LisVjxoTFxyNuKDWR17dK/UTFxyNuADoBHEB0AniAqATxAVAJ4gLgE4QFwCdIC4AOkFcAHSCuADoBHEB0AniAqATxEXAzo72PcAEFkUdcRHAHBvEoqgjLgKYY4NYFHXERQBzbBCLoo64CGCODWJR1BEXAcyxQSyKOuIigDk2iEVRR1wEMMcGsSjqiIsA5tggFkUdcRHAHBvEoqgjLgKYY4NYFHXERQBzbBCLoo64CGCODWJR1BEXAcyxQSyKOuIigDk2iEVRR1wEMMcGsSjqiIsAd+Z44K3c0L4PQtxZlIVFXAS4M8cD78Q97fsgxJ1FWVjERYA7czwkLhBDXAQ4MccHv/d2GJdTD/0n11/TvjMCnFiUxUZcBDgxx7uet/LqtnfqwboXFmbhObEoi424CHBijgdezoWzuk4symIjLgLcmOOP77zSi8ry4qufaN8XAW4sykIjLgKcmeNh0JZVR87oOrMoi4u4CHBljoO2/N2LrtTFlUVZYMRFgCNzvBueyd1143SuM4uyyIiLADfm+GA9OpE78Lyz2ndFghuLstCIiwBH5nh0O6zKwa+9rX1HRDiyKIuMuAhgjg1iUdQRFwHMsUEsijr5uOwA0CH+23ws7LkIsLao8FkUA4iLAObYIBZFHXERwBwbxKKoIy4CmGODWBR1xEUAc2wQi6KOuAhgjg1iUdQRFwHMsUEsijriIoA5NohFUUdcBDDHBrEo6oiLAObYIBZFHXERwBwbxKKoIy4CmGODWBR1xEUAc2wQi6KOuAhgjg1iUdQRFwHMsUEsijriIoA5NohFUUdcBDDHBrEo6oiLgJ0dD/Zoj8XSYwUEaP8WoZL2WCw9VkAAc2wQi6KOFRDAHBvEoqhjBQQwxwaxKOpYAQHMsUEsijpWQABzbBCLoo4VEMAcG8SiqGMFBDDHBrEo6lgBAcyxQSyKOlZAAHNsEIuijhUQwBwbxKKoYwUEMMcGsSjqWAEBzLFBLIo6VkAAz+43iEVRR1wEMMcGsSjqiIsA5tggFkUdcRHAHBvEoqgjLgKYY4NYFHXERQBzbBCLoo64CGCODWJR1BEXAcyxQSyKOuIigDk2iEVRR1wEMMcGsSjqiIsA5tggFkUdcRHAHBvEoqgjLgKYY4NYFHXERQBzbBCLoo64CGCODWJR1BEXAcyxQSyKOuIigDk2iEVRR1wEMMcGsSjqiIsA5tggFkUdcRHAHBvEoqgjLgKYY4NYFHXERQBzbBCLoo64CGCODWJR1BEXAcyxQSyKOuIigDk2iEVRR1wEMMcGsSjqGsXl8ION/tqbj8sb9/rXJO/QImKODWJR1DWKy1Y/dKG07flV4sIcG8SiqGsSl2cb5+4Hf6zdKm4MgkNcmGN7WBR1TeKyFWVkr7Trstf/NnFhjg1iUdQ1iMvhzXMf+uFx0Pn8rMvzqxceEZcWc7x9xvNOXipvG93ued6L76e37kQf8vD4d285ERd1DeKSVCVpTGzr3IfjcdnB0X7gRX6luO3/fS3e+MXo1s9/Nb71y3+mcgexkISqIOR4cXm2cc0nLs39xPvC13c++4M0JJHPvuP90h9GG78R3vxB+CE7f1r6EGA6qSzIaBSX+GTLVhaXw5tBbjgsarwHfnDROxv+PfRO3Ms27norN8K/B97p+EMuT3wIGrD2m7aEjrXn8ih84Ii4NJ7j3aQYaUEicVTCnJx6mH/Ifi9ODpoiLuqOE5dnG1d84uI3n+Nh0pEgKGcr3klcJBAXdcd5tOhRP1E4w7uUms7xII/L6fH3jTY5LBJBXNQd5zoX4pJoOMdBP5IdlngvpejJZlKTobdyyfe3exX7NpgFcVHXJC57/bVbwbHQ2GEQh0Vycdn1PO9UsqcSdCWwcmn8szEb4qKu5XOLClfSERfBuJx8wfNWo5MsT67H17m8zFV07RAXdS2fFU1cigQPi/zRIHpI+uCit3rX9x/0Jj8CMyEu6ng9FwGScUnO6A6zR4s46dIOcVFHXAQ0f7TobPrGxKNFcXHy/lR+CI5GXNQRFwGi17mMxaVq5wYzIC7qiIsAiSt0y/sq7LkcG3FRR1wEiDy3qHyWZZj3h3MurRAXdcRFQOM5HnreJX/0rlcMR/L40Hb8+FB4623ff7DOFbotERd1xEVA4zkeDeKLWKIjnuAQKDqtst+LN66mOzARnlrUEnFRR1wEHO+V6NK4+E/DV6LLXnsuvvUqZ3NbIi7qiIsA5tggFkUdcRHAHBvEoqgjLgKYY4NYFHXERQBzbBCLoo64CGCODWJR1BEXAcyxQSyKOuIigDk2iEVRR1wEMMcGsSjqiIsA5tggFkUdcRFQmONfqFH87zeJuKgjLgKIi0HERR1xEUBcDCIu6oiLAOJiEHFRR1wEEBeDiIs64iKAuBhEXNQRFwHExSDioo64CCAuBhEXdcRFAHExiLioIy4CiItBxEUdcRFAXAwiLuqIiwDiYhBxUUdcBBAXg4iLOuIigLgYRFzUERcBxMUg4qKOuAggLgYRF3XERQBxMYi4qCMuAoiLQcRFHXERQFwMIi7qiIsA4mIQcVFHXAQQF4OIizriIoC4GERc1BEXAcTFIOKijrgIIC4GERd1xEUAcTGIuKgjLgKIi0HERR1xEUBcDCIu6oiLAOJiEHFRR1wEEBeDiIs64iKAuBhEXNQRFwHExSDioo64CCAuBhEXdcRFAHExiLioIy4CiItBxEUdcRFAXAwiLuqIiwDiYhBxUUdcBBAXg4iLOuIigLgYRFzUERcBxMUg4qJOPi47S00vLtr/5TBA/Lf5WNhzEcCei0HWftOWEHERQFwMIi7qiIsA4mIQcVFHXAQQF4OIizriIoC4GERc1BEXAcTFIOKijrgIIC4GERd1xEUAcTGIuKgjLgKIi0HERR1xEUBcDCIu6oiLAOJiEHFRR1wEEBeDiIs64iKAuBhEXNQRFwHExSDioo64CCAuBhEXdcRFAHExiLioIy4CiItBxEUdcRFAXAwiLuqIiwDiYhBxUUdcBBAXg4iLOuIigLgYRFzUERcBxMUg4qKOuAggLgYRF3XLE5ftM5538lJ52+h2z/NefL+wZdc72/xLExeDiIu6pYnLwIucLm57cjHemPfk4CJxcQRxUbcscRl6K5f80bvFkPijTW/1brTxcrLlYN0jLo4gLuqWJC7pHsnQO3Ev27jrrdwI/x6k+zP7PY+4uIK4qFuSuOwmUQkicznbmEZl6J166IcnYDxvdZ24OIK4qFuSuAzTnZNBRTySuOz3Vl4LjpSIixuIi7olicsgj8vp8fcFQYm27X/zrk9cnEFc1C1HXPJmJHspBU82C+dhiIsziIu6ZY/Lrud5p+5VfGATxMUg4qJu6eNy8gXPW70x+YFNEBeDiIu6ZY9L+M5B8pC0T1wcQlzUEZf8jK5PXBxCXNQtR1zyR6ArHi0qFoe4OIO4qFuSuEy9zoW4uIi4qFuSuFRdoZuHZMBhkXuIi7oliUvlc4vSG/u9rCjExRnERd2SxCUIiTfxrOigOKt3fX+7l5/kJS7OIC7qliUuo+LruQQJSZ5NFG9c5Qpd9xAXdcsSl9Ir0aVx8Z+Gr0R38lL+4DRxcQZxUbc8cekQcTGIuKgjLgKIi0HERR1xEUBcDCIu6oiLAOJiEHFRR1wEEBeDiIs64iKAuBhEXNQRFwHExSDioo64CCAuBhEXdcRFAHExiLioW/y4fFlNdheIi0HERR1xIS5uIi7qiAtxcRNxUUdciIubiIs64kJc3ERc1BEX4uIm4qKOuBAXNxEXdY3icvjBRn/tzceFDe/0+195S/guNURciEsV4qKuUVy2+qEL2e3nb0QbrojfqyaIC3GpQlzUNYnLs41z94M/1m6lGx71Lzz2f1bYoIG4EJcqxEVdk7hs9a8Ff+5luy6HN8996IeJuSZ/v2ZHXIhLFeKirkFckpY8v3r+cWk7cSEuBhEXdQ3iklQlaUzm041ybHbmTC8uVfdGLy7z/rnDIJEmiDluXB71++dLrSEuxAVaZKIgpVFc4pMtW6W4fDuoy+Oaz5gLvbhkd4HDIoOs/aYtoeMfFh3+uPDgtALiQlyqEBd1x4/L5Ib5Ii7EpQpxUSfwaFH5OGnuiAtxqUJc1B3nOpckM8+vEpfsTeJiBXFR1yQue/21W/6zjfyylq3wCt3Pb3LOhbjYQ1zUtXxuUbzT8vxqtIFHi4iLPcRFXctnRSdHRJ+/0++vva7aFuJCXCoRF3W8ngtxcRNxUUdciIubiIs64kJc3ERc1BEX4uIm4qKOuBAXNxEXdcSFuLiJuKgjLsTFTcRFHXEhLm4iLuqIC3FxE3FRR1yIi5uIizriQlzcRFzUERfi4ibioo64EBc3ERd1xIW4uIm4qCMuxMVNxEUdcSEubiIu6ogLcXETcVFHXIiLm4iLOuJCXNxEXNQRF+LiJuKijrgQFzcRF3XEhbi4ibioIy7ExU3ERR1xIS5uIi7qiAtxcRNxUUdciIubiIs64kJc3ERc1BEX4uIm4qKOuBAXNxEXdcSFuLiJuKgjLsTFTcRFHXEhLm4iLuqIC3FxE3FRR1yIi5uIizriQlzcRFzUERfi4ibioo64EBc3EZfphp53tnh7dOcFz/NOvvpQ7lsQF+LiJuIy1WjT804VQvJRz4utXBb7HsSFuLiJuEy13zt5xss7EuzHvPR+8PeDdc8TqwtxIS5uIi5TDbzTQ+90emvX8y7FbwV7NCfuCX0P4kJc3ERcpjm46F3e763ciG8FRcnOv+z3xHZdiAtxcRNxmWY32D/Jk7Jb3Ft574dS53SJC3FxE3GZIu5K1pRh6dyuGOJCXNxEXKaIj4jCY6Po5iA/+yKJuBAXNxGXKZJdlUGyxzIoX/IihbgQFzcRl3rpLkt6Spe41CAuxKUKcam362Wi4yEOi2oQF+JShbjUG+RxiU7plk7oPv1E6tsQF+LiJuJSK7+UJXjrrJ8fHkXkHjoiLsTFTcSl1jC/rCU+pVu8iO7gotgJGOJCXNxEXOoUU7IbP5WocPn/wCvsxRwPcSEubiIudXYL+Qj2U6Jzubc978X3g7TwxMUS4kJcqhCXOoPiSZVhUppheoZ35ZLYNyIuxMVNxKVG+aRKckrX95/eOcOLRY0jLsSlCnFRR1yIi5uIizr5uOzMmV5cqu6NXlzm/XOHQeK/zcfCnkt72V1gz8Uga79pS6g6LqMHr/RO3Dv4vbtzvjdtEBfiUoW4qKuMy5P16EkHgtfqdYi4EJcqxEVdVVyCqKz+i2DPZXRb7mK97hAX4lKFuKirikv4quAHF8OnH3T0VGxRxIW4VCEu6iriMtoM9lfiuOz3OnltTVHEhbhUIS7qKuISdSWOS/ynbcSFuFQhLuqIC3FxE3FRV3lY5F1OsrLbzT85IIq4EJcqxEVd9QndUw+juDxZhMeiiQtxqUJc1E15KPr3r/fk/tnY7hAX4lKFuKirv4guem0H+5e5EBfiUom4qKu5/H/7BenXdugMcSEuVYhLvUbT3R5PXGwvuwvExSDiUq/RdLdHXNrL7gJxMYi41Gs03e1VxeXpT3Ni/0BSZ7pOyAw/fuJiEHGp12i626u8iM4b+wfZTOs6ITP8+ImLQcSlXqPpbo+4tJfdBeJiEHGp12i625t2zuWntwX/mYHOdJ2QGX78xMUg4lKv0XS3N/2E7lDuH0jqTNcJmeHHT1wMIi71Gk13e9PjwksuzPTjJy4GEZd6jaa7velx4VnRM/34iYtBxKVeo+lu76g9F+Iyw4+fuBhEXOo1mu72psblyTovuTDLj5+4GERc6jWa7vaOeiiaE7oz/PiJi0HEpV6j6U6M7vS8leKzDYdHFmJ6XFZek/hP6VbXCZnhx09cDCIu9RpNd2IQFeH0+IaGcckv/7d/7b9PXIhLNeJSr9F0x/Z7J+4Gf+QvwjLaPPKUCU9cbC+7C8TFIOJSr9F0xwbRLspuvutycPHIf3aIuLSX3QXiYhBxqddouiOjzehx44OL2e7Kfu/Il8AlLu1ld4G4GERc6jWa7khSlaQxoV3vW+ue99K0Q6NyXEoPFPHExVl//MTFIOJSr9F0RybjMjw6EMSlvewuEBeDiEu9RtMdSc+wDNIgjDa9lx/6Tzan/YPPY4dFxdeJWpAHjLpOyAw/fuJiEHGp12i6I5N7Lun2KbsfnHNpL7sLxMUg4lKv0XRH6uIysaGIuLSX3QXiYhBxqddouiOTjxaVtleriUtyUPQf3vs1zrkc/eMnLgYRl3qNpjs2fp1LkpmpL8pSGZePepzQbfLjJy4GEZd6jaY7thv+C4n7vfxq/0F0Qnd92j/4XBWX3fzBopWXeVb00T9+4mIQcanXaLoT+XOL4p2W/XgPZNpzAKriMvBW3/94feX7H28uwL9DT1yISyXiUq/RdCfyZ0UnR0RPrnvlp0lPqH5W9OX4GGu0uQD/WHTXCZnhx09cDCIu9RpNd3uVcQlPtAzDvZbdaZfIGNF1Qmb48RMXg4hLvUbT3V5tXKKuTDzyZFDXCZnhx09cDCIu9RpNd3sVcYkPhqLHmHiB7pl+/MTFIOJSr9F0t1d9Qvdssv/CC3TP9OMnLgYRl3qNpru9qrjs97xTD8MnJn28yQt0z/LjJy4GEZd6jaa7vcqL6IbhtXO7vED3rD9+4mIQcanXaLrbq778/+l7wQ7Lg3WPfyt6ph8/cTGIuNRrNN3t8cTF9rK7QFwMIi71Gk13e2MvFvXP7wp8zfnqOiEz/PiJi0HERd3EK9Gtvq10T9oiLsSlCnFRV/Eylysv23/5uQLiQlyqEBd14+dcPr4ePka0SLsvxIW4VCEu9eY0T5MndEfbZ7yjnu5oCXERGwanEJd6c5qnykeLnkS7Ly++L/D1u0dcxIbBKcSl3pzmqe6h6Afr4e7LpQXYfSEuYsPgFOJSb07zVH+dy9Pb4UtN8Up0xGUxEZd6c5qnqRfRBbsvPHGRuCwm4lJvTvNUH5dRdGR0irgQl4VEXOrNaZ7q4vLxK+E53ZfKF+wefrDRX3vzcb7h8+/2+2uvP/Y1ERexYXAKcak3p3mqjEt8uuXkxOncrX7oQnb72Ua04bxqXYiL2DA4hbjUm9M8VVzncudMxU5L6NnGufvBH2u3ktuHN/u//dj//I3+FYE70hpxERsGpxCXenOap/G4RCdaKnZaQlv9a8Gfe9muy/Or0VvPNi5UfPDcEBexYXAKcak3p3mqeG5R1U5L6PDmuQ/9MCljh0ETG+aLuIgNg1OIS705zdNEXKp3WkJJRJLG5Pb6pT2XnTnTi0vVvek6IfXm/XOHQTP+1s8yTxWfdnCx2QtTNng9l5q4HN7MTsJE5v3zJC6xef/cYdCMv/WzzNPkZ402G77qbYNXoktOsfhb5bhs6Z7P5bCodhiWG4dF9VrNU9CWLuNSsedyuNVXPZ1LXGqHYckRl3pt5mm7t/LCfONyeLOvfA0dcakZhmVHXOq1mKfR5urdYXdxqXi06POrysdEPnGpGYalR1zqtZmnn4b/5FBncZm4ziXozNpbjb5bF4hL9TAsO+JSr+U8dRmXvf7arfCS/2vphq38TT3EpXYYlhpxqddynrqMS+G5RdGxUfLUIuUnFxGX2mFYasSlXst56jQu+bOio7js9YlLhLgYRFzqtZynTuNiEnGpHYalRlzqtZwn4kJcECIu9VrOE3EhLggRl3ot54m4EBeEiEu9lvNEXIgLQsSlXst5Ii7EBSHiUm9O80RciIubiEu9Oc0TcSEubiIu9eY0T8SFuLiJuNSb0zwRF+LiJuJSb07zRFyIi5uIS705zRNxIS5uIi715jRPxIW4uIm41JvTPBEX4uIm4lJvTvNEXIiLm4iLOuJCXNxEXNQRF+LiJuKijrgQFzcRF3XEhbi4ibioIy7ExU3ERR1xIS5uIi7qiAtxcRNxUUdciIubiIs64kJc3ERc1BEX4uIm4qKOuBAXNxEXdcSFuLiJuKgjLsTFTcRFHXEhLm4iLuqIC3FxE3FRR1yIi5uIizriQlzcRFzUERfi4ibioo64EBc3ERd1xIW4uIm4qCMuxMVNxEUdcSEubiIu6ogLcXETcVFHXIiLm4iLOuJCXNxEXNQRF+LiJuKijrgQFzcRF3XEhbi4ibioIy7ExU3ERR1xIS5uIi7qiAtxcRNxUUdciIubiIs64kJc3ERc1BEX4uIm4qKOuBAXNxEXdcSFuLiJuKgjLsTFTcRFHXEhLm4iLuqIC3FxE3FRR1yIi5vaxGX7jOedvDS5fdc7m7w1ut3zvBffP9Y9WxrEhbi4qUVcBl7k9Pj2g4tpXJ5cjD/k7PiHoIJ8XHbmTC8uVfdGLy7z/rm75yfeF76+89kfeN4Xy9t//qvpps++4/3SH0Yf8g2F+zcD8d/mY2HPpb3sLrDnYlDj37R0/2TonbhX3L7fy3ZVdr2VG+Hfg8m9G0wiLsTFTY3jsptEJYjM5Xzr6Lbnra4ncUmjMvROPRS5k24jLsTFTY3jMkx3RwbFUyr7vZXXRptjJ1mIy0yIC3FxU+O4DPK4FA569r951x+PS3Cbw6IZEBfi4qamcckLMrFfMhaXJ5tjZ2VQjbgQFzd1FZddz/NO0ZZZEBfi4qbO4nLyBc9bvXHcu7cMiAtxcVN3h0X+aJA8JI2piAtxcVOHceGM7myIC3FxU4tHi86mb4yVYyIuPBY9E+JCXNwkdJ1LiLi0Q1yIi5uErtANpXHJI8P1/7MgLsTFTWLPLSpEJX3Xfo/nRc+AuBAXNzV/ivDQ8y75o3cnX1Ahi0vQn9W7vr/d46hoFsSFuLipeVxGxddzCYKSBSQ/HIqeIR1Y5Sq6GRAX4uKmY74SXXVc/KfhK9GdvMR+yyyIC3Fxk7VXTlpCxIW4uIm4qCMuxMVNxEUdcSEubiIu6ogLcXETcVFHXIiLm4iLOuJCXNxEXNQRF+LiJuKijrgQFzcRF3XEhbi4qRgXFkUFcSEubiIu6ogLcXETcVFHXIiLm4iLOtpaqkYAABJ5SURBVOJCXNxEXNQRF+LiJuKijrgQFzcRF3XEhbi4ibioIy7ExU3ERR1xIS5uIi7qiAtxcRNxUUdciIubiIs64kJc3ERc1BEX4uIm4qKOuBAXNxEXdcSFuLiJuKgjLsTFTcRFHXEhLm4iLuqIC3FxE3FRR1yIi5uIizriQlzcRFzUERfi4ibioo64EBc3ERd1xIW4uIm4qCMuxMVNxEUdcSEubiIu6ogLcXETcVFHXIiLm4iLOuJCXNxEXNQRF+LiJuKijrgQFzcRF3XEhbi4ibioIy7ERcP2Gc87eWnaxtGd6NbDwvuH3unZvwNxUdcoLocfbPTX3nxc2vb86jXRO9QYcVnAOR54kdP1Gw/W41un8rrs94jLQmkUl61+6EJx0+HNPnEhLg0NvZVL/uhdzztbu3EQ3vK3Cx8y2hyv0VTERV2TuDzbOHc/+GPtVr4paAtxIS4NHVyMkzH0Ttyr2Rjcujz2IcOJXZ2piIu6JnHZijqyV9h1+XRj7dvEhbg0tJsUIy1Ixcb01n5v5Ub8/oOLJ/4ecVkoDeJyePPch354kuX842zLV+8/Ii7EpaHsxOygcFxU3jgZl4F3eUBcFkqDuCRVSRoT+Wvfn4jLzpzpxaXq3qiN8S/m/XM/hh94vzL2xsTGn3/N+0Z44yfe3/o30db/G2wtfngjS7MoQlUQcry4+MRljNoYL1BcPvuO98X4rZ94v/xnNRt/4n3h6zs7f/p3kq0//9oX/iFxOZJEEuQ0ikt8smVrelzmTS8u2V3gsKiR0WZ6NDTMH2me2LjdCx+JXkkue4mOlTgsWizyey7zRlwWbY5nisuT6/F1Li9HH7AbbSMui4W4EJd5myUuBxe91bu+/6AXfcRoMzqtS1wWy7EeLQoRF+LS0CxxGWaPFoWbk0eSiMtiOd51Lj5xCRGXZrJHoIu1KG3MUxPe2u/FpSEui6VJXPb6a7f8ZxvlmhAX4tLU0de5lPdjhl7u1EN/NsRFXcvnFuXHRsSFuDR19BW65T0X4rKYWj4rmrgQl/ZmeG7RME9NvnPDYdFi4fVciMv8BbsiVc+KLmwMHy162/cfrBf7Q1wWC3EhLvM3Kr50S3AIFB3rlDaGDxNF0qcWhYjLYiEuxEVD4UXn0riMvRLd09tBXk6+WjzFQlwWC3EhLm4iLuqIC3FxE3FRR1yIi5uIizriQlzcRFzUERfi4ibioo64EBc3ERd1xIW4uIm4qCMuxMVNxEUdcSEubiIu6ogLcemCqUUhLjqIi+wcq42xsTk2tSjERQdxkZ1jtTE2NsemFoW46CAusnOsNsbG5tjUohAXHcRFdo7VxtjYHJtaFOKig7jIzrHaGBubY1OLQlx0EBfZOVYbY2NzbGpRiIsO4iI7x2pjbGyOTS0KcdFBXGTnWG2Mjc2xqUUhLjqIi+wcq42xsTk2tSjERQdxkZ1jtTE2NsemFoW46CAusnOsNsbG5tjUohAXHcRFdo7VxtjYHJtaFOKig7jIzrHaGBubY1OLQlx0EBfZOVYbY2NzbGpRiIsO4iI7x2pjbGyOTS0KcdFBXGTnWG2Mjc2xqUUhLjqIi+wcq42xsTk2tSjERQdxkZ1jtTE2NsemFoW46CAusnOsNsbG5tjUohAXHcRFdo7VxtjYHJtaFOKig7jIzrHaGBubY1OLQlx0EBfZOVYbY2NzbGpRiIsO4iI7x2pjbGyOTS0KcdFBXGTnWG2Mjc2xqUUhLjqIi+wcq42xsTk2tSjERQdxkZ1jtTE2NsemFoW46CAusnOsNsbG5tjUohAXHcRFdo7VxtjYHJtaFOKig7jIzrHaGBubY1OLQlx0EBfZOVYbY2NzbGpRiIsO4iI7x2pjbGyOTS0KcdFBXGTnWG2Mjc2xqUUhLjqIi+wcq42xsTk2tSjERQdxkZ1jtTE2NsemFoW46CAusnOsNsbG5tjUohAXHcRFdo7VxtjYHJtaFOKig7jIzrHaGBubY1OLQlx0EBfZOVYbY2NzbGpRiIsO4iI7x2pjbGyOTS0KcdFBXGTnWG2Mjc2xqUUhLjqIi+wcq42xsTk2tSjERQdxkZ1jtTE2NsemFoW46CAusnOsNsbG5tjUohAXHfJx2ZkztTH+ctW9URvjX8z75z6dqUXRW5U5/9R3jv71nCf2XNrL7gJ7LhNMLQp7LjqIi+wcq42xsTk2tSjERQdxkZ1jtTE2NsemFoW46CAusnOsNsbG5tjUohAXHcRFdo7VxtjYHJtaFOKig7jIzrHaGBubY1OLQlx0EBfZOVYbY2NzbGpRiIsO4iI7x2pjbGyOTS0KcdFBXGTnWG2Mjc2xqUUhLjqIi+wcq42xsTk2tSjERQdxkZ1jtTE2NsemFoW46CAusnOsNsbG5tjUohAXHcRFdo7VxtjYHJtaFOKig7jIzrHaGBubY1OLQlx0EBfZOVYbY2NzbGpRiIsO4iI7x2pjbGyOTS0KcdFBXGTnWG2Mjc2xqUUhLjqIi+wcq42xsTk2tSjERQdxkZ1jtTE2NsemFoW46CAusnOsNsbG5tjUohAXHcRFdo7VxtjYHJtaFOKig7jIzrHaGBubY1OLQlx0EBfZOVYbY2NzbGpRiIsO4iI7x2pjbGyOTS0KcdFBXGTnWG2Mjc2xqUUhLjqIi+wcq42xsTk2tSjERQdxkZ1jtTE2NsemFoW46CAusnOsNsbG5tjUohAXHcRFdo7VxtjYHJtaFOKig7jIzrHaGBubY1OLQlx0EBfZOVYbY2NzbGpRiIsO4iI7x2pjbGyOTS0KcdFBXGTnWG2Mjc2xqUUhLjqIi+wcq42xsTk2tSjERQdxkZ1jtTE2NsemFoW46CAusnOsNsbG5tjUohAXHcRFdo7VxtjYHJtaFOKig7jIzrHaGBubY1OLQlx0EBfZOVYbY2NzbGpRiIsO4iI7x2pjbGyOTS0KcdFBXGTnWG2Mjc2xqUUhLjqIi+wcq42xsTk2tSjERQdxkZ1jtTE2NsemFoW46CAusnOsNsbG5tjUohAXHcRFdo7VxtjYHJtaFOKig7jIzrHaGBubY1OLQlx0EBfZOVYbY2NzbGpRiIsO4iI7x2pjbGyOTS0KcdFBXGTnWG2Mjc2xqUUhLjqIi+wcq42xsTk2tSjERQdxkZ1jtTE2NsemFoW46CAusnOsNsbG5tjUohAXHcRFdo7VxtjYHJtaFOKig7jIzrHaGBubY1OLQlx0EBfZOVYbY2NzbGpRiIsO4iI7x2pjbGyOTS0KcdFBXGTnWG2Mjc2xqUUhLjqIi+wcq42xsTk2tSjERUejuBx+sNFfe/PxlA0K1MaYuExhalGIi45Gcdnqhy5M2aBAbYyJyxSmFoW46GgSl2cb5+4Hf6zdqt2gQW2MicsUphaFuOhoEpet/rXgz718T2Vigwa1MSYuU5haFOKio0FcDm+e+zD46/nV849rNqhQG2PiMoWpRSEuOhrEJYlIkpSqDZGdOVMb4y9X3Ru1Mf7FvH/u05laFL1VmfNPfafi11bR4scFQEKwDAIaxSU+t7KVx2Vsw7KytqjwWRQD5PdclhBzbBCLoo64CGCODWJR1C3+o0UGMMcGsSjqFv86FwOYY4NYFHVN4rLXX7vlP9uIilK9YUkxxwaxKOpaPrcoORSy8NwiA5hjg1gUdS2fFZ2eyzXwrGgDmGODWBR1i/96LgYwxwaxKOqIiwDm2CAWRR1xEcAcG8SiqCMuAphjg1gUdcRFAHNsEIuijrgIYI4NYlHUERcBzLFBLIo64iKAOTaIRVFHXAQwxwaxKOqIiwDm2CAWRR1xEcAcG8SiqCMuAphjg1gUdcRFAHNsEIuijrgIYI4NYlHUERcBzLFBLIo64iKAOTaIRVFHXAQwxwaxKOqIiwDm2CAWRR1xEcAcG8SiqCMuAphjg1gUdcQFQCeIC4BOEBcAnSAuADpBXAB0grgA6ARxAdAJ4gKgE8QFQCeIC4BOEBcAnSAuADpBXAB0grj4j/qpC8XNh3/S6qtt9a8lX/Xch+HfzzbOP/b9n303+PL/4I/CDXvJB0QK29HY5+9s9Ptrr//vwqbDm/GPvfrmDO+AHOJSE5fP37hQ+xnT7PWvhH8d3uzHEYluPyp8g2JcHlVVDTP6i434p7f2Vr6NuBhCXILf8GsVW59ttPuNj/dUgr9+c+NK+tWfbUTz/1dvhN+pEJfSdjS01++HOy1/86N+ix8fcZkD4iIcl2Rq99b++GZYmehm+h2ir1mIS2k7mnl+de1W/NazjeahIC5zQFxKcXkUHaFs9a/shfvb1/xH5/7HG/1zt/zD4H+Pa2/Gsfifwduv+4fvBH+G+yjZu9IvEc381rkPt8LxfX41SEwpXxVxQQuP4uPP7M14qf44isbnb/TX/kmY7LAhhzfP/1V4O/zIz8NzXF/9I+IyF8Sl9Ct+eDNIw17//OMsLr/TD249vxod3AedCIbyd8I337oZ/nklrEf6rsRevPVCXJFn4cFRcPiTn7MtHxZxLretrXTHJdnzi5fq/4TReBadjPnNLC7xqZkr0ZFUP15Y4jIHxCU/oRtO6144n+Eb8aHKo368HxLupAS7KFfCE7Xn7vufBmN83/+LMCn5uxJhV4LPvpaMfPT54bf4yj++H71//IRuuh2NFOuQ7B6GP+qkJsGafBqeJ09unr9/+ONgsYL/dYQ7LVvJOzTv/lIgLuW4BLH4dnRolMYljEbUi3Bww/kM2xDt4ASbz31YeFfy5eKzLMH7o21b8Qz/zY820oc1Sg9FF7ajkSgoieTE1pXkzeSc+qMsLvFiZR+/R1zmg7iMnfkIDnOisUvjci16O8lPOqnxaMaDnL0r+3prt+LWBG8k7Qkd/uyd/tijRaXtaKSQ8/jteKnCNUmuBsjPuWQnv4Ka/+V//t0N4jIfxGX8tOpWfNVJMS7poXo/ndT8z8K70i8Q1CNuSvDGs40rhS8d/S91PC5+9vA1GogrH4t+frPE5fM30uuKiMscEJexuOz1+8neSnHPJd//GItLxaPIQVnigIRvlPbIo0/L41LejmYmHi06Oi7BMe1X/9F//RMOi+aEuJTjEgzdf4v2I4pxCU+u5O8vxaXwrvxLnP9xtDF449/GH5d8h+iD87iUt6OZ8etc8rhMnHNJ45L8n+ARcZkP4lKOS/g/wa3+lfRQJXnfVvjgkP/pRvg/v3JcCu/Kv8ba349vBW9E07wXXwgT7JRfKZ1zKW1HQ2NX6OZxCaL924+DJamIy7n70XVJxGUuiEvhuUXh//SCmYt2JMLrV95K45JczBI9BDQWl/xdmWcbSSz2+skbP0q+Qdic7CzNtfJ2NPVp+tyi6Pq4PC7ZCfiKw6L0501c5oC4lOKylfxP8EL0tLgr2V7NYfj829+6P3lYVHhXJuhNeriTNudn3w0+6CvRdbzFuBS3o7HogfyvJM+KLsQlOnH71f+ycWX8hG54WfXab/33q+lGdIq4wFF7HGwqIy5wTXRqJdh7KR6qQgFxgWvSUyuva9+RZUdc4JzD6FzMW9p3Y+kRFwCdIC4AOkFcAHSCuADoBHEB0AniAqATxAVAJ4iL20Z3XvA87+SrD2f/jE3vsu8fXFy5Ed36xM9vAE0QF6d91PNiK5dn/ZRSXLZ74ecRF7RBXFw29LyX3g/+frDuebPWJY7L5NtAQ8TFYbuedyl+K6jEiXuzfRJxgRDi4q4gDWfTt/d7s2aCuEAIcXHXbnFv5b0fRud0R3fOZOd393sn/lN4c/Xt+EOeXO95K6/+eX7OZRidrjmbn92d8snAOOLirqF3avxBov3kBG8Ui/3eyhkv6UdgN37f6npdXKZ9MjCBuLhr4J0e23JwMdrT+F/r0T5NGIsvPfSfxLfC9931R+96Xv5oUXJYFN+Y9snAJOLirsHETsUwKUHQibNRH6IPCHZCbuTvG9bFZdonA5OIi7sm4pKf4Y2OmNIuBLW4nL8vulURl2mfDFQgLu6aOCzKQxCd693vZbsil/P3FS+iK8Zl2icDFYiLu0ondJ9+UgxBlIa2cZn8ZKACcXFX6XRIWBr2XDBPxMVdxYvoorOwE6dNCn1ofs6FuGA64uKwwuX/A6/qAZ9iHxo/WkRcMB1xcdltz3vx/aAR6RMXk0tVHqSXqhT7UHOdy1l/7DqXyk8GJhEXpw299CUX4l2YsYtsS31I3ve3iy+5MAg2nK65Qpe4YDri4ran4fN/Ci8WNfb0oFIfRrfHnlsUbLruRSeCK59bRFwwFXEB0AniAqATxAVAJ4gLgE4QFwCdIC4AOkFcAHSCuADoBHEB0AniAqATxAVAJ4gLgE4QFwCdIC4AOkFcAHSCuADoBHEB0In/DywzxgsM6rgsAAAAAElFTkSuQmCC;" vertex="1" parent="1">
          <mxGeometry x="-49" y="308.41" width="267" height="196" as="geometry" />
        </mxCell>
        <mxCell id="ob-IkZe3Byg3iUuScjMG-2" value="" style="shape=image;verticalLabelPosition=bottom;labelBackgroundColor=default;verticalAlign=top;imageAspect=0;image=data:image/png,iVBORw0KGgoAAAANSUhEUgAABFwAAAMDCAMAAACo2PFXAAABelBMVEUAAAAAADoAAGYAOjoAOmYAOpAAZmYAZpAAZrYAv8Q6AAA6AGY6OgA6Ojo6OmY6ZmY6ZpA6ZrY6kJA6kLY6kNtNTU1NTW5NTY5Nbm5Nbo5NbqtNjshmAABmOgBmOjpmOmZmZgBmZjpmZmZmZpBmkJBmkLZmkNtmtpBmtttmtv9uTU1ubm5ujqtujshuq8huq+R8rgCOTU2Obk2Obm6Oq8iOyMiOyOSOyP+QOgCQOmaQZgCQZjqQZmaQkDqQkGaQkLaQtpCQttuQtv+Q27aQ29uQ2/+rbk2rjm6r5P+2ZgC2Zjq2kDq2kGa2kJC2kLa2tma2tpC2tra2ttu225C229u22/+2/7a2/9u2///HfP/Ijk3Iq27Iq47I5P/I///bkDrbkGbbtmbbtpDbtrbb25Db27bb29vb2//b/7bb/9vb///kq27kyI7kyKvk5OTk///r6+v4dm3/tmb/yI7/25D/27b/29v/5Kv/5Mj//7b//8j//9v//+T///8xefXdAAAACXBIWXMAABkRAAAZEQGQh6VoAAAgAElEQVR4nO2di78Ux3mm+3DZwKyQRcygRHCUWF6ygC0bFMfCize21hbWQWh3lRW7gsQ6BhspQU6Qjg7XOfW/b99m+jLdPd1dX3W99c37/H4SB85c6q36+pnq7uqeyBBCiAMi3w0ghOiEciGEOIFyIYQ4gXIhhDiBciGEOIFyIYQ4gXIhhDiBciGEOIFyIYQ4gXIhhDiBciGEOIFyIYQ4gXIhhDiBcunL4Sw6+XjC99uPVhx/4+7Ghy/uzKJo58oEDQNhcSM69jnsyxFDufQn3th3Ppz2/Uqc3fTwvfRhlAvIyxFDufQmLr4oOjfhG1blsumt43lVNLH9PEO5wEO59OQg2nlt0vLbL1TxaHejNw6i6NSUO22EbIRy6cledOx/TbrbUZJLOm3qnrocbNUuEQkCyqUfLy9Gp5L/pnvHslzSiUnnoykXAgfl0o90491bbu/7xaZ8OMvmFE9vzqLo+KVs1yTW0JXFzSh6PTnL8yj5TXTm8nKvJX3k6x/Es5H87FPlqSua5dL8Nrv5gZmkUc9uJ6eNzn5Va0hqxqfxjzt/F//74nb86NU5qEoL03Y9ejtK2rh8++xdL1f/Wm/wWtL0YfGr1B9XfnocLNvXzCZnRSuLE2QtPVscJKk8YGzz85fb9PTKyNZfaEP+tm5TC+XSj72k9A6WOyelOUzugOXh1+xkcPz7y8kB4Pg5SSVmnPg8f0LGG7u5XKpPXdEol5a3+dtCLg9m+SMuVxuSNDk76hudNU8vRsXx31oLk81r+S9nl03JyI/qtDS4nvRgVg1eBCs/fa9IFndHqZU7l5seXgRayaX6gLHNL8ml6+mlka2/0Kb8Ld2mGMqlF3HBn0orK59s7C0/NfP5R3FqJ91g4we+k9bj8hRxlP8t1cSK9MVqT11RP+ZyZf2xq7dZvsmV8stfqTQk/uk/Xcyf+9sb5RbVWri4EVVfo/Sa50xHg2uvE3fZzhuffvrJbm2Pbj1D8mfy6A/Tv/3F6v2vND88D7SUS+0BY5tfyKXz6aWRrb/Qhvxt3aYYyqUX+X7Q3nJ36KD0w7nsRHAyj396IzNGXILRTjqtTkosmSY/u5192iW/OXE3OwGUPrT+1NJbLotw8XA3e3L72ywbtHz5p7vF22WPSH6Kzj42i3QbeOMrs/h49aKVFqabV/IuD2fZZpE8M/l7PCdqasSS+uus2r9XOcm29vSD5M/lEeu0lcv+aeqeIlBug/oDxja/LJeOp1dGtvJCG/K3jrNiKJc+LI+PZBMYU9ov2ltOkPNP50w/SQlm8lkdnYlfIim21SnjRV5k9aeuqK1zyScuLW+zlMt++eXPlR+R/HRu+cOy7UmL6i1Mnpn9Pl+TvDrekz2yrcH119lr/oRef3r857n9fItLGndyFaDh3YpAuQ3qDxjb/JJcup5eGdnKC23I3zrOiqFc+rA8alscRNxbzdJPVRZgZY+M/3ltScxereSy4l176oqKXLKjsB1vc7CcWpVe/lT5Eauf8to3taM6qycXv1/t8pUf1t7g2uskK5r/y2f13zU8PW7Z8Vn+HvlOUp7oXFfk7FdrDxjb/EIuXU+vdGNbPzTl79Ft+qBc+lDanc4LI6+Qg+XH2fKwQlxElYMzGV/+8R+zdXDFKaL8MWtPXVHaRz9z6av8Ga1vc7D82F7+Q/Zj8YiG40Xl7WbVwtJr5D9Vd2vaG1x7nZfZEZ4Tv6rsAzQ9/aDo1lKi9JEdkbPNde0BY5tfPlvU/vTi/VteqC3/hm7TCeXSg7xOMlaz9qL0Kr+vbtPL85P5gbxqjWWPXHvtjPq8ovttVpYrySXb9gq5rKblNblUWri2eZWE1diIgurrmMPlCfITdzc8fS9ab2X2vh2RVwGrDxjb/Ba51J5ekUv9hbryd3SbXiiXHpTP8FT2KfJt4XBWq5zSRp4sKInOfO9Xd/fyJ1SnFmtPXbEul6636TNzaZFLtYWbNq/2BtdeJ+bhzUqXtT09PUj6Ya2V2ft2RM5ssPaAsc0fKpf1F+rM395tiqFcelA6NrdfOt53rnSOpjrRLTaBg/QUzepFunaLajTOXNrexkIutRYO2K+oUn+djKefvF3ZmJqevlfxzKnyIzsir+0WlXMPb77FblGf/NOu7gaBctlMeSfncFYc0Dv5eC/7xdoVtatnVGp1wwHdGutyaX+brgO6G+Sy1sKGzas8rWhr8NrrFK3cLT2j4enJ+ZiPi1NZpUPU57oirx3QbWhH/+Z3yKUyqSqPbOWFNuRvH2fFUC6b2S9fNVha6rLzm4v5L/ZWj6ht08W2kN8OZnVmc3kquv7U0ruuncptfZvyqejiTO65PnJZa+Ha5rVqcramp6XB9depvExpu1p7euqT5VmiZA/p7PJZmYzbIucvW3/AyOa3yqX29PJx8coLbcrfOs6KoVw2Uv0kWhVbXE1nlr9YrpBaPFgtNC228WSy/OhmVJxDOJmvcksfU3/qiga5tL5N1yK6zTOXagvXNq98GdnyTVsavPY68dZ0IjkTmywqK21Ma0/PtrqDYslatoZtt7l71uRSf8DI5rfKpfb04v1rL7Qpf+s4K4Zy2Uj1/pbFSoy90sGE0qKUfBspPsYKks2/Y/l/fZn8eg22vs1qyfD68v9Nx1zqLVzbvNrXz7ecOo9Wy82i1QHN1gwHxcLa6pPyZ7VGXk6Iag8Y2/w2uawv/28Z803528ZZMZTLRip7RaXp8EFU+sWqdNKDepVNIOONj2vF/cayjKtPLb1twwdc29sU1yP8oX7h4ia51Fu4vnmt3vVsUyOWrCVdnSBZXoLYlGHl6uxgVtLe/NLLEx9u7NnqhYvZAyya3yyX6tPLx9/W3rg7f8s4K4Zy2UT9+NxB6cxG6Rfp9fQ7r2dLMstnnO+8ltxA4LNi6y5uuXCq4akrGuXS+jbF/VyyC/uLWy5sPBVda2HD5pW95onqPQjWGryWdHHnTJTcY+CrjgzFoYj9aHnkItmnK92ZoCVycSin8oCxzW+XS+XpZbnUXmhj/uZuUwzl4outPDm5icq2SwKHcpmWYj5S29siCZSLJiiXaUnOUya3JkvOIWzLSYMBUC6aoFympXw6hBOXNSgXTVAuE1NcZLLxe862EMpFE5TL1OTnEHp8Q+sWQrlognIhhDiBciGEOIFyIYQ4gXIhhDiBciGEOIFyIYQ4gXIhhDiBciGEOIFyIYQ4gXIhhDiBciGEOIFyIYQ4gXIhhDiBciGEOIFyIYQ4gXIhhDiBciGEOIFyIYQ4gXIhhDiBciGEOIFyIYQ4gXIhhDiBciGEOIFyIYQ4gXIhhDiBciGEOIFyIYQ4gXIhhDiBciGEOIFyIYQ4gXIhhDiBciGEOIFyIYQ4gXIhhDiBciGEOIFyIYQ4gXJZZ/Hw7VkU7bz+ge+GEBIylMsaD2KzZJy466cFB8d/uHznp7987UrDIw5np8zixrHPjXm5G0WnGl9lb+fD1WNBmnQQNT1zLE9vJp8BZ78q/VPWgLa/lhDtHMu2yPYKEJRLnf1YKh88NubZnVnUVg42fJvQ/ZCDKDr5OPtxL2qsvGJLjh8QnWt8lf7bz7WEKZrUdzM6nbDpQX/IPwR2Lhf/5kAu9xKctoVy2RYOZ6sN4+nFlg9gG779drNd4i05r/2XF8+0bskpccl+2PIqvbefa9c220WmST03o9One9glblEyUXh2u9l1G+jdOffu9bCLXVsoly1hcaMklAP5qcu33/awy0H0vVlmuP1j/33TlrycUKzRd/u5dq2HXWSa1G8zOn26h11eXszjxW88YpT6ds69ez3sYtkWymVLOJztFB+7L3/xq8fJ2J87mEUn4n9e3Hktio5fepw9MCujlxeT0jiIdxqSqfEbTUdpvu1m/QkH0fezDXRx49R+WnmL27N4jz5946dvxx+Tf8r3QQ6SufjJB9lk63BW2Rnp2n6udeOqSe2b0elu1p+wX+x5pT/uH/u/u9Gx36b7Hk93o52/W+6mxa77U/L36tO7OudeN+JtoVy2hP1o7WM3+dBOjzgcLnesk7pck8t/y37XUCcj5HJuP3+TK+mWnBwiTQ4wf27yRnyvsiX/68W00fs7ld0RYblINElQLnvFK6cB94/9bfy2/5Zs0NX2xHPRlHONTxeRi2VbKJctYW/9MEtyLPOu+TLRyIkPjIk/eo59vi6X+LP7cfIx1TAtHiOX7CN//9jn6Za8l7TgabrHtpe8z4NZlB89zfZB0uqu747sLU96NRw5GiMXgSbJyaV8ePRlIrL9KHvDdAtO2hNFqw365N3Fx1H/zhkqF9u2UC5bwt76eY6D/CjdfrTSybkGuZwrfldjjFzSzTLeBTHJlvzyYvpeyR+Hs2xGUN2S0+2+tgsiLheBJsnJ5eXFYgNN3zXbNUl+rLVncSPZ0suP39Q5Q+Vi2xbKZUtYyiW2xHICmx/WjT918i1lP9tHqsol//Bq2K0q0+mUFfGWnO5QJFWXbMnLuXs8GzhYHsuobMnp/2u7IH2PWXY6RbhJvTajzr2hJeU5UfZW2YGgdL+s0p587U1dLv06p3NvSKotlMuWsNwtqsglrYXMIgmpSdYP6Ba/66CPW9ItOflvL/0U7LElJ1vx2kka4bNFEk2SO1uUzQEy0umBG7n0Oltk2xbKZUuozDyyycqaXFKvtMhl47nIHm5Jt+K4Av/1YnJwsNeWHO9/1HdBpNe5SDRJcJ3L2hkaN3Lptc7Fsi2Uy5ZQORXdIhebmUvPFbrnkvL/x+SVawc48sKsHeBI/vi4tgsivUJXokmCK3Tra0uKDXrtOIeVXPqs0LVsC+WyJVQW0VXk0nLM5XA25JhLPw6yt41WhVo5NXPqsXlYOzUTP3rntfoby15bJNIkyc2otiq22KDjgfp+6eyVrVzct4Vy2RZiWXx/OfQPZyW5rJ0tyspzP9p4tmgw6Zb8Mrv4IFtUkh0ByiqzvHBitSU3vLG8XKybdLA8RSOxNS0vMM3WpBUb9Go90nRysWuLaK8gQbnUeRBFxy9/ldx4YTculv9RyCVf5/Jwd7lFnbhrFh9HS7kkTmpe5zKYbE99r/wpWFoOezP+mKwf4KgcVMyRl4t1k2Q3o2dxC6Lj+ZXIpQ06GYboxP+enZtOLlZtoVy2h8Pd1RqIdNspHazNP56WU5aEv8yPuZzYLf1ueuoFC4DnJh1IzCGFQGrLhFAuDTxMbs4RvX5peYx2uZGUry1KpzDxVGZ1QPffik/y6VnchvvY89akw9mxu8mMwZfnUdsyPZSLCAcSx3FHk1yycjKbZBX4lY3HJi0v4Dlb+3cfnYPUlumhXETwKxezl980D6hmPTZpkR7/uFz/Zy+dg9SWyaFcRPAsF0IAoVxEoFwIqUO5iEC5EFKHciGEOIFyIYQ4gXIhhDiBciGEOIFyIYQ4gXIhhDiBciGEOIFyIYQ4gXIhhDiBciGEOIFyIYQ4gXIhhDiBciGEOIFyIYQ4gXIhhDiBciGEOIFyIYQ4gXIhhDiBciGEOIFyIYQ4gXIhhDiBciGEOIFyIYQ4gXIhhDiBciGEOIFyIYQ4gXIhhDiBciGEOIFyIYQ4gXIhhDiBciGEOIFyIYQ4gXIhhDiBciGEOIFyIYQ4gXIhhDiBciGEOIFyIYQ4gXIhhDiBciGEOIFyIYQ4IXy5fPON7xZIoCKFihBMIQblgoGKFCpCMIUYlAsGKlKoCMEUYlAuGKhIoSIEU4hBuWCgIoWKEEwhBuWCgYoUKkIwhRiUCwYqUqgIwRRiUC4YqEihIgRTiEG5YKAihYoQTCEG5YKBihQqQjCFGJQLBipSqAjBFGJQLhioSKEiBFOIQblgoCKFihBMIQblgoGKFCpCMIUYlAsGKlKoCMEUYlAuGKhIoSIEU4hBuWCgIoWKEEwhBuWCgYoUKkIwhRiUCwYqUqgIwRRiUC4YqEihIgRTiEG5YKAihYoQOlLcS/DdCMoFAxUpVIRQkeLePQS7UC4YqEihIoSGFPfuQdiFcsFARQoVIRSkuHcPwy6UCwYqUqgIEXiKe1W8toVywUBFChUhgkxxrw2vraJcMFCRQkWIgFK0KoVyESKcWuhCRQoVIeBT9FAK5SIEei30Q0UKFSFAUwyyCYZbKBcQVKRQEQIqxdgJCoRbKBcQVKRQEQIghcA+D4JbKBcQVKRQEcJbCgGllEAYC8oFAxUpVISYOIWsUgoQxoJywUBFChUhJknhSikFCGNBuWCgIoWKEC5TOFdKAcJYUC4YqEihIoR8igmVUoAwFpQLBipSqAghlcKLUgoQxoJywUBFChUh7FJ4VkoBwlhQLhioSKEixJgUPZUy5cIThLGgXDBQkUJFiP4pAJVSgDAWlAsGKlKoCLHJB9BKKUAYC8oFAxUpNIRoUUMgSilAGAvKBQMVKRSEqFoiOKUUIIwF5YKBihThh+hrE1SlFCCMBeWCgYoUQYdQoZQChLGgXDBQkSLAEMqUUoAwFpQLBipShBJCx45PNwhjQblgoCIFdojeSgleLAkIY0G5YKAiBWCIoTLR4haIsaBcMFCRAiaExfxEiVsgxoJywUBFCs8hxhtl7VUmarFDEAqKcsFARQofISwmKS2oGAqIFJQLBipSTBdC3CglVAwFRArKBQMVKRyHkJ+kNKJiKCBSUC4YqEjhJMRESilQMRQQKSgXDFSkkAsxuVFKqBgKiBSUCwYqUtiG8KmUAhVDAZGCcsFARYpxISCMUkLFUECkoFwwUJFiQAiMSUojKoYCIgXlgoGGFJtdgGuUEhqGAiMF5YKBghRtXgCepDSiYCgMRgrKBYPwU9QUEZpSCsIfigSEFJQLBsGn6C8TSKOUCH4oUhBSDJLL0e/m87/6efbjv1ydn//ZEydtGgZCL9oTfIrQlVIQ/FCkIKQYIpdX780Tfpr8fD/98YKjVg0BoRftCT1F6EYpEfpQZCCkGCKXr+cXnph/v3r+I2OeX33z9/H/kh99g9CL9gSdQoNSCoIeihUIKQbI5ejWm1+YRDHvJxOX+H/mO4SpC0Iv2hNuCk1eSQl3KMogpBh+QDeRS+6ZV9ff8n/UBaEX7Qk0ha45S0agQ1EDIcVgufz5aiyU3Cq5Y5Z8Q7aKilJWf/XdKuITG7l8PZ+/9YWhXLaeezWzrP7Nb7OIZ6zk8qPYLsnMJTvYcr8iFz8gzP/sCSpF225QUCFaYQopBu8WHf3z/ELLzMUPCL1oTzgpOg6whBOiC6aQYvgB3cQolIs0gaToPnQbSIgNMIUUI5b/x/tCPFskTQgpNp4TCiHEZphCigFyyVXy6nosFq5zEQY+RZ+zzfAhesEUUgyZudxPVui+uJUY5bv5+Y/M86upYjyD0Iv2YKfouY4FO0RfmEKKQdcWXU8vKErnL7y2SBbgFP1XyAGHGABTSDHomMuL383n599ND7PwqmhZUFMMWnuLGmIYTCEF7+eCAWSKQWYxoCEGwxRSUC4Y4KUYahaDGGIMTCEF5YIBWIoRZjFwIUbCFFJQLhggpRhnFoMVYjxMIQXlggFKiu4luBtACWEHU0hBuWAAkcLKLAYkhDVMIQXlgoH/FLZmMQghJGAKKSgXDDynEDCL8R5CCKaQgnLBwGcKEbEkcChwQEhBuWDgLYWYWQyHAgmEFJQLBn5SSJrFcCiQQEhBuWDgIYWwWQyHAgmEFJQLBlOnkDeL4VAggZCCcsFg0hROzGI4FEggpKBcMJguhSuzGA4FEggpKBcMJkrh0CyGQ4EEQgrKBYMJUsgslOuCQ4EDQgrKBQPXKdybxXAokEBIQblg4DTFJGYxHAokEFJQLhi4SzGVWQyHAgmEFJQLBo5STCeWBA4FDggpKBcMXKSY1iyGQ4EEQgrKBQPxFJObxXAokEBIQblgIJvCh1kMhwIJhBSUCwaCKTyZxXAokEBIQblgIJXCn1kMhwIJhBSUCwYiKbyaxXAokEBIQblgYJ/Ct1kMhwIJhBSUCwaWKQDMYjgUSCCkoFwwsEgx4RLcDWz9UACBkIJywWBsChyzmG0fCiwQUlAuGIxKAWUWs9VDAQdCCsoFg+Ep0MxitncoEEFIQblgMDAFnlgStnIoQEFIQblgMCQFplnMNg4FLggpKBcMeqeANYvZuqGABiEF5YJBvxTIZjHbNRToIKSgXDDokQLcLGaLhiIAEFJQLhhsSoFvFrMtQxEGCCkoFww6UwRhFrMVQxEMCCkoFwzaU4RiFqN/KEICIQXlgkFLioDMYpQPRWAgpKBcMGhIAbgEdwNqhyJAEFJQLhjUU4RnFqN1KMIEIQXlgkElRZBmMSqHIlgQUlAuEJQsEqpZjJKhYAoxKBcEViYJVywJGoaCKeSgXAC414DvNo1BwVAYppCDcvGPDrMYDUORwBRSUC7+0WEWo2EoEphCCsrFPzrMYjQMRQJTSEG5+EbJrCUh9KHIYAopKBe/qNklSgh7KJYwhRSUi0e0HMhdEvBQlGAKKSgXb6g5SbQi2KGowBRSUC6eqDpFhVtCHYoaTCEF5eKFtelKkCnqqAjBFGJQLtPTtCMUXooGVIRgCjEol6lpPsYSWopGVIRgCjEol2lpO3wbVooWVITQkeJ0gu9GUC5T0n5mKKQUragIoSLF6dMIdqFcpqPrnHM4KTpQEUJDitOnIexCuUzEhuUsgaToRkUIBSlOn8awC+UyCRtXygWRYhMqQihIoVEu35BmSmrx3RSyBZTkMvVbO5OLH+A/aHqt74dP0QcVIUJPcbqC16ZQLm7pe+UQdoqeqAgRdorTpykXQZBrof9FicgpeqMiRMgp6mrh2SJLcGthyPXOuCkGoCJEsCnWzOLbLZSLM4aoBTfFIFSECDRFTSkIbqFcHDHILAY1xUBUhAgxRcNsBSEF5eKAYZOWFMAUw1ERIrwUjTtCCCkoF3FGqAUwxRhUhAgtRcshFoQUlIswo9QCl2IcKkIElaL96C1CCspFlJFqAUsxFhUhAkrRdV4IIQXlIsdosxikFBaoCBFKig2nnBFSUC5S2KgFJ4UVKkKEkWLjahaEFJSLDHZqQUlhiYoQIaTosU4OIUWzXBYP354d+/zlL+5O3JoxIPSirVowUlijIgR8in5LcBFSNMrl6W4URbFcLkbnpm7PcPz3orVZDEIKAVSEAE/Rd3E/QoomucRSOfHreOayuB3tfDh5i4biuRftJy0pCLVgjYoQ0Cn6XzeEkKJJLvvRqVgwxz43Zi/+CR2vvSikFoxasEZFCNwUgy5JREjRIJfFjXi+ksnlcHby8fRtGobHXhRTC0YtWKMiBGqKIWYxGCka5JJ6JZNL9n9svPWioFowasEaFSEgUwyatKQgpKBcxiFqFoNRC9aoCAGYYrhaMFI07hZFV3KtHETcLWpCWi0YtWCNihBwKUaYxWCkaD6ge/JxKpenIZyLnr4X5dWCUQvWqAiBlWLMpCUFIUXHqejf3JxF+HtFk/eiC7Vg1II1KkIgpRhrFoORon0RXUIAy1wm7kUnZjEYtWCNihAwKUZPWlIQUrQs/39wJlbL8UvwB1zMpL3oZtKSglAL1qgIAZLCTi0YKXjhYm8cqgWjFqxREQIihaVZDEYKyqUnTtWCUQvWqAjhP4XtpCXFewrTLZevJmuFDZP0omO1YNSCNSpC+E4hYRbjPUVKo1wWd/5zuoJuJ4SDLu570blZDEYtWKMihN8UQmrBGIsmuSxuRNny3CiANXTOe3EKtWDUgjUqQnhMIbI/lIMwFs2L6HYupz88mG39Irpp1IJRC9aoCOEthaBZDMZYtC3/z9j25f9TqQWjFqxREcJPCslJSwrCWLRduLj2IyzOenE6sxiMWrBGRQgfKcTVgjEWjXJZLcw9nG2tXCZVC0YtWKMixPQp5M1iMMai6ZjLXnTq8eqnSVszBie9OLFaMGrBGhUhJk7hYNKSgjAWTXI5nEXHL3325aNPdkO4uMhBL06uFoxasEZFiElTODKLwRiLxnUuD2bLCxcvT92e4Yj34vRmMRi1YI2KENOlcDVpSUEYi+YVus/uvJZeuBjCGl3ZXvQwaUlBqAVrVISYKoVTtWCMBa8tKuNLLRi1YI2KENOkcGsWgzEWlEuBP7Vg1II1KkJMkMLxpCUFYSxa5LL4Mgd/x0iqF32qBaMWrFERwnmKCcxiMMai+4BuFMB9LkV60a9ZDEYtWKMihOMU06gFYyya5HIQRdslF+9qwagFa1SEcJliiv2hHISxaL626Nhv4S8pWmHdiwBqwagFa1SEcJdiOrMYjLHoXv4fApa9CKEWjFqwRkUIRykmnLSkIIxF94WLIWDVixhmMRi1YI2KEE5STK0WjLFo+yL6cBjfiyCTlhSEWrBGRQgHKSY3i8EYi+abReHfIqpgbC8iqQWjFqxREUI6xfSTlhSEsWi5zeX38de3LBnXi1hqwagFa1SEkE3hxywGYywaj7moPxWNphaMWrBGRQjBFJ4mLSkIY7GFcsEzi8GoBWtUhBBL4VMtGGPRtFv07MsC/N2jgb0IqRaMWrBGRQihFF7NYjDGYssuXARVC0YtWKMihEQKv5OWFISx2Cq5wKoFoxasURHCPoV/sxiMsWiRS75T9Oknf6PnmAuuWQxGLVijIoRtCgi1YIxFo1z+oO+qaOBJSwpCLVijIoRVCoD9oRyEsdhwVfTOWfgrGPv0IrpaMGrBGhUhLFLAmMVgjEXzV4uc+OzR7s5vH90IYanu5l7EVwtGLVijIsTYFDiTlhSEsWhe53IlMcyVMK4y2tSLIagFoxasURFiXAowtWCMRetV0ekFRgehfylaGGYxGLVgjYoQY1KgmcVgjEWrXFKvvLwY9BfRB6MWjFqwBWrjGs/QoYCbtKQgFFTrLRcOZ7FXQri1S2svBqQWjFqwBG77GsmwoYA0i8EoqOYDuufy+UvAX0QflFowasEOzG1sBAOGAnPSkoJQUC3fFX3y8eJGdPbRjSjQ3aKwzGIwasEK3M1sKL2HAlgtGAXVuIhuP1k7l612uW0anDwAACAASURBVDJ1gwaz3ouBTVpSEGphIKe78d280fQcCvCoCAXV8l3Rn8QTloe79S+if/H38/n5d58kP349T3nffQs3Ue/FENWCUQsdbBDJJnw3fxB9hgI/HEJBDblw8fnVVChvJXa5DyqXMNWCUQs5liIJ3jObhyKEOAgFNUAuR7fmP3liXrw3/2nyc6oYBMq9GKpa/NWCW5NswE/kTWwaCvgAKcByabpZ1KvrF5I/nl+9sPoZgVUvhmsWM00tuFVD/d/tXs0jnUOB2eQGYOVyu+s2l6+ux5OW51d/6r5tvVjKJGi1yNeChD0GbkcdD5V/M4d0DAVOIzeCKpf9znvofje/kPzvH96bz39c3TX6xgP31vDRCmvSerV7thhuQ0zVGHlAm4XFJrksOle3HN06/9HqZNGbX3iWiw61fDOgZAXsAbOVhNpWrw3BZpNcur8r+n52PHf+7hPz4tbc85GXmln8NmY8q6pt+3cZnOeQus2S3yhNKabsRRlAd4u6Lig6ul/2yavr1anL5KhQi5MzNl6CCBW056hrKbz36xhA5WL2Wmcu2Yyl9FccuXhthx1hmqQBBwXtoSdqKQD7uQ+ocmm90cKL6/PKSSLKRYQgRdKE44KeyDPlFKH0/DqocjGHF6PvvZPxw5JmXl0///PlT+kauudXPS+lUy4X3w0bynQFPcwzwzqySMGxsKPli+gbT0XfL1b7308P6L43973aRZtbfLfFDj8FLSya1YPCHhZUuexF0c7r6zOX/NKi9OKi8mVGXgneLeM/YfHwX9D2nhmhI0j8j0XbDbobb/r/3byQi3nxu/n8/M+8u6VYoRso4VdxCYSCXjHMM60XLXjNYAHCWAw8FQ0IQi+OZVXAQdfxCtihGCia8NWCMRaNK3Qpl2koFXDAKQqCCLEVasEYi+Zri/DvP1eA0IujqFRwsCnKhBZCrVkMxlg0XxVduwMdNAi9OIZqCYeaokLIISgXeZqOubz9WnIS+kzK6/B7SAi9OJx6BYeZokb4ISgXSZrPFnXdcgENhF4cynr9hphiDQUhtLgFYiyaDuj+8dOCfwrzq0WwaajfAFOsoyGEErdAjEXTMZeHdydvhgUIvTiIxvINLkUTKkLocAvEWLR+nWswIPTiEJo/GUNL0YiKEEwhBhfRTUvbrDusFC2oCMEUYnDmMimtO/RBpWhDRQimEKP5u6J3Pviq4d8xQejFnnQcLAwoRTsqQjCFGE0zl1/+gKeiHdB5HiKYFF2oCMEUYnCdy1R0n+MMJUUnKkIwhRhNu0XPvvyy6RsXQUHoxc1sWj4RRooNqAjBFGIM+SJ6TBB6cSMbV2YFkWITKkIwhRiUywT0WPUZQIrNqAjBFGI0y2Xx8O1ZtPP6B/Br/w1GL3bTZ0E5fooeqAjBFGI0yuXpbn44N4QFLwi92EW/i1XQU/RCRQimEKP5e4uinTc+/fTTm7MAThZB9GI7fa+Dw07RExUhmEKM5jvRHcsuXXzacqtuKBB6sZXe19hCp+iLihBMIUbj8v/VbS4PopbvXgQCoRdbGHD5PnCK/qgIwRRidF+4GMI1jAi92MyQO4PgphiAihBMIQbl4ophdx1CTTEIFSGYQgzuFjli4A3NQFMMQ0UIphCj5YBuNl9p++5FKBB6cY3BN0uETDEUFSGYQoy2U9GXPvvy0R2eih7HiPuwAqYYjooQTCFG4yK6wxkX0Vkw5h7PeClGoCIEU4jRsvz/TvLVRccvwR9wMRi9WGbc7ePRUoxCRQimEKMql8UN/C9Bq4PQiyVGfjMFWIpxqAjBFGJU5ZKeeg7h/HMJhF5cMfpbb6BSjEVFCKYQoy6XnQ8pl/GM/0ItpBSjURGCKcSo7xZFx9/5wWzne+8s+SH8YReEXsyw+bI+nBQWqAjBFGLUDugeRDXwJzEIvZhgoxacFFaoCMEUYtTPFj36JWcuo7BzC0oKO1SEYAox+I2LIliqBSSFLSpCMIUYTdcWXcS/oKgEQi/aqgUjhTUqQjCFGPw6V3uspy0GIYUAKkIwhRjcLbJGQC0AKSRQEYIpxODMxRKJaYvxnkIGFSGYQgx+Eb0VQmrBqAVrVIRgCjH4RfQ2iLkFohasURGCKcTgF9GPR04tGLVgjYoQTCEGv4h+NIJqwagFa1SEYAox+F3RI5GcthiMWrBGRQimEINyGYesWjBqwRoVIZhCjPYvoj/2+ctf3J24NWPw0YvC0xaDUQvWqAjBFGK0fxF9LJcQbv7voRfl1YJRC9aoCMEUYrTc/f/Er+OZy+J2CHfonrwXXbgFohasURGCKcRo/t6iU/k1AHvxT+hM3ItO1IJRC9aoCMEUYrQt/8/kcjjDv0B62l50oxaMWrBGRQimEKPtwsVMLiFcwzhlLzqathiMWrBGRQimEINyGYAztWDUgjUqQjCFGG1fRJ9phV9EX8LdtMVg1II1KkIwhRjNB3RPPk7l8jSEc9ET9aJTtWDUgjUqQjCFGB2non9zk19Ev8KxWyBqwRoVIZhCjPZFdPwi+gLXasGoBWtUhGAKMVqW/z84wy+iL3CuFoxasEZFCKYQgxcubsT9tMVg1II1KkIwhRiUyyamUAtGLVijIgRTiLEml8XDd9754Qc+mjISt704ybTFYNSCNSpCMIUYdbkcztIjuSdCuNlChstenEotGLVgjYoQTCFGTS6JW773zg9CuHfuEoe9OJ1bIGrBGhUhmEKMmlz2syW5Qayey3HWixOqBaMWrFERginEqMpl9X1oo9b9f6OKTC2+W0FISHTIZXWh4uEsmP0iN4qedNpiMD5orFERginEaJFLCJdD5zjpxYnVglEL1qgIwRRiUC4NTD1tMRi1YI2KEEwhBuWyhge1YNSCNSpCMIUYlEsdL26BqAVrVIRgCjEolyp+1IJRC9aoCMEUYqzJ5bP0K6IfLX/Ysu+K9qQWjFqwRkUIphCjLpeoBv4ERrAXfU1bDEYtWKMiBFOIQbkU+FMLRi1YoyIEU4jBWy4s8ThtMRi1YI2KEEwhBuWS4VctGLVgjYoQTCEG5ZLi2y0QtWCNihBMIQblYgDUglEL1qgIwRRiUC5+D+QuQagFa1SEYAoxKBeAaYvBqAVrVIRgCjG2Xi4QasGoBWtUhGAKMbZcLhjTFoNRC9aoCMEUYmy1XGDUglEL1qgIwRRibLNcgNwCUQvWqAjBFGK0fJ3rw7dnxz5/+YsQvmBkbC8iqQWjFqxREYIpxGj/IvpYLkF8B8DIXoRSC0YtWKMiBFOI0SSXWConfh3PXBa3o/zLAJAZ1YtY0xaDUQvWqAjBFGI0yWU/OpXfLWov/gmdMb2IphaMWrBGRQimEKNBLumXF2VyOZyN+PqiiRnei3DTFoNRC9aoCMEUYjTIJfVKJpcQ7nY5tBcR1YJRC9aoCMEUYmydXDDdAlEL1qgIwRRiNO4WRVdyrYz6VteJGdSLoGrBqAVrVIRgCjGaD+iefJzKJYjvox/Si6hqwagFa1SEYAoxOk5F/+bmLIBb6A7oRdhpi8GoBWtUhGAKMdoX0SUEsMylfy8CqwWjFqxREYIpxGhZ/v/gTKyW45fgD7iY3r2IPG0xGLVgjYoQTCHGlly4CK4WjFqwRkUIphBjO+QC7xaIWrBGRQimEKPpVPQfP13xT/jf57q5F/HVglEL1qgIwRRiNC6iq37p4lnsIy8bezEAtWDUgjUqQjCFGE1yefu1xClnVnbBXki3oRdDmLYYjFqwRkUIphCj6ZjLYi+brSxuR2eNeTCLrkzdqiF092IYasGoBWtUhGAKMdpuubD86Rz8NQBdvRjItMVg1II1KkIwhRhtt1zISG+5AH71YnsvhqMWjFqwRkUIphCj7aro0o+hyiUkt0DUgjUqQjCFGI1yKc1cYq+k/8OlpReDUgtGLVijIgRTiNF0zGVveZBlcSM5+rIf4jGXsNSCUQvWqAjBFGI0yeVwFu1c+uzLR3fiPz9c3Iyw77vQ1IuBTVsMRi1YoyIEU4jRuPw/tsvqquiXF7EnLk29GJxaMGrBGhUhmEKMrquizyRXRS9++QG0W9Z7Mbxpi8GoBWtUhGAKMdRduBikWjBqwRoVIZhCDG1yCdQtELVgjYoQTCFGi1y+zPj0k79BPgudUu7FUNWCUQvWqAjBFGI0yuUPs9VFi9BLXFJKvRisWjBqwRoVIZhCjCa5HBS3W9gBv9+CKfViuNMWg1EL1qgIwRRiNC+iO/HZo92d3z66gb3CJWPZiyGrBaMWrFERginEaL5Z1JXEMFfKlzDCkisl6GmLwagFa1SEYAoxWi9czO+2cGr991CcLuO7MRYg1II1KkIwhRitckm98vIi9upcNW6BqAVrVIRgCjFa7+cSwq1cjBa1YNSCNSpCMIUYzQd0z+XzF/C7LRg1boGoBWtUhGAKMVquij75eHEjOvvoBvhFi5QLFCpCMIUYjYvo9pO1c9lqF+h7c1MuWKgIwRRiNC//f/ZJPGF5uBvtXJ64OQOhXKBQEYIpxGiSy8O7kzdjLFrcAlEL1qgIwRRidN/9Hx8lboGoBWtUhGAKMbrv/h8AOtwCUQvWqAjBFGKEPnPB6EV7VKRQEYIpxGg+Fb3zwVeTt2QsCL1oj4oUKkIwhRhNM5df/iAK834uAaMihYoQTCFG81XRLXJ58ffz+fl3nyQ/Hv3L1fn5nz2ZqJVdIPSiPSpSqAjBFGI07RY9+7KgvHv0/Oo84a1EKffTHy9M1MouEHrRHhUpVIRgCjEG3KD76Nb8J0/Mi/fmP0088+bv4/+d/8hdy/qC0Iv2qEihIgRTiDFALq+upxOV51cvJBOX9+Mfv0OYuiD0oj0qUqgIwRRitHwp2sO3Z8c+f/mLpqW6r66/9eTo1ptf5D86bV0fEHrRHhUpVIRgCjEa5fJ0Nz2U+/Ji0z10k+lKbpXcMUu+IYRsNRvlEkvlxK/jmcvidrS+nO7o1vmPKBdCSAMb5bIfncqvAdhbv4fu/eR4bn74xdyvyMUPCPM/e1SkUBGCKcRoW/6fySW912WZo/vpMdzmmYsfEHrRHhUpVIRgCjHaLlzM5FK/hvHo1jxdQ0e5SKMihYoQTCHGILm8uJ7sE5mVVXi2SAwVKVSEYAoxGneLoiur7xcp7xa9un7+5/mPXOcijIoUKkIwhRjNB3RPPk7l8rR6LjozSsp38/MfJZcDvN/w9IlB6EV7VKRQEYIpxOg4Ff2bm7PKdYv5pUXZxUW8tkgWFSlUhGAKMdoX0SVUlrl8Ny/JhVdFy6IihYoQTCFGy/L/B2ditRy/BP2lRTkIvWiPihQqQjCFGAMuXAQFoRftUZFCRQimEINywUBFChUhmEKMxnUub4TzxUUYvWiPihQqQjCFGC23uTx+OYTDLSkIvWiPihQqQjCFGE27RYsHr0VR9PpnkzdmFAi9aI+KFCpCMIUYLcdcnt2eRdEOzxZNhooUKkIwhRjtB3Qf7oYxfUHoRXtUpFARginE6DpbtLgz4/cWTYSKFCpCMIUYHXJ5+HYQe0YIvWiPihQqQjCFGG1ySQ+6nPhg0raMA6EX7VGRQkUIphCjWS7J8Zads2F8XzRCL9qjIoWKEEwhRtP9XJJJSzgLXRB60R4VKVSEYAoxmhfRhbREF6EX7VGRQkUIphCjaebyP0OZtKQg9KI9KlKoCMEUYmy6cPEZvGgQetEeFSlUhGAKMTrlsnjwGte5TIOKFCpCMIUYHXJ5ejP9Utfp2jIOhF60R0UKFSGYQow2uWQXL0bHL0/amjEg9KI9KlKoCMEUYjTLJV1CF8hKF4RetEdFChUhmEKMJrmklyxGOyEszzUYvWiPihQqQjCFGGtyySYtx//rRfyjLRkIvWiPihQqQjCFGDW5pJOWZHeo/i3RuCD0oj0qUqgIwRRiVOWS3OEyu4UL5TItKlKoCMEUYqzJ5cSlr7KfKJcpUZFCRQimEKMql0V2wOXyY8plYlSkUBGCKcRYO6Cb3CIq3jf6P5TLpKhIoSIEU4jRdOHindna90QDg9CL9qhIoSIEU4jRvIguXfkf7VziIrqpUJFCRQimEKP12qJsJR2X/0+EihQqQjCFGB0XLqbL6fCPvCD0oj0qUqgIwRRidN/P5dHblMs0qEihIgRTiLHpZlH4IPSiPSpSqAjBFGJQLhioSKEiBFOIQblgoCKFihBMIQblgoGKFCpCMIUYlAsGKlKoCMEUYlAuGKhIoSIEU4hBuWCgIoWKEEwhBuWCgYoUKkIwhRiUCwYqUqgIwRRiUC4YqEihIgRTiEG5YKAihYoQTCEG5YKBihQqQjCFGJQLBipSqAjBFGJQLhioSKEiBFOIQblgoCKFihBMIQblgoGKFCpCMIUYlAsGKlKoCMEUYlAuGKhIoSIEU4hBuWCgIoWKEEwhBuWCgYoUKkIwhRiUCwYqUqgIwRRiUC4YqEihIgRTiEG5YKAihYoQOlJcS/DdCMoFAxUpVIRQkeLaNQS7UC4YqEihIoSGFNeuQdiFcsFARQoVIQA2SluuXcOwC+WCgYoUGkIgbJSm4gcrvIagXDBQkUJBCJmtUkoN9gh1yzgoFwxUpAg/hG8XiOO1NykXDFSkCDuEbw84wWuPUi4YqEgRYgjfW38LQqFk+mgslAsGKlKEEwJaDXL5PLdCUi7fEILMIEH4bqwdviI4k4sfwvm47EJFCswQg6YbOJMPSxDGgnLBQEUKpBCDlLL+PB9NFgVhLCgXDFSk8B9irFLqLzFZg53hfywoFxRUpPAVQkApJVQMBUQKygUDFSmmDSGrlAIVQwGRgnLBQEWKKUK4UkqBiqGASEG5YKAihcMQzpVSoGIoIFJQLhioSCEeYkKlFKgYCogUlAsGKlIIhfCilAIVQwGRgnLBQEUKqxCelVKgYiggUlAuGKhIMSJET6VMufBExVBApKBcMFCRoncIQKUUqBgKiBSUCwYaUmzyAbRSCjQMBUYKygUDBSla1BCIUgoUDIXBSEG5YBB+iqolglNKQfhDkYCQgnLBIPgUfW2CqpSC4IciBSEF5YJBkCkGCQVcKQVBDsUaCCkoFwwCSDFQJYEppSCAoegBQgrKBQO4FCNVEqxSCuCGYhQIKSgXDDynsFSJGrEksKCkoFwwmDSFE4tocQsLSgzKBQP/dysYppL293GWYypYUFJQLhiIpZhKJW1vLRTDIywoKSgXCKy2Zz8qaUDFUDCFGJQLAj03cSyVrKNhKJhCDsoFgOatHl0l6ygYCmO+TfDdCHsQxoJy8Y+URSZWyTrhD0XuFgV2QRgLysU/gapknfCHYumW8O2CMBaUi18CVsk6YQ9FwrffarELwlhQLt4IXSXrBDsUK75twnejRoEwFpSLF/QIpUyQQ1GiUS2BugZhLCiXqdE1WakQ2lBU6GeWYFyDMBaUy5S0+USHW4IaiipjzYLrGoSxoFwmonueosItoQxFjY2SCFI2CGNBuUxAjx2gAFJsJsAQaybY7IQwXIMwFpSLW/oeWMFO0ZPQQjRu90MdAOoahLGgXNwx5IgtbooBBBWidSu3S4HiGoSxoFycMPhMEGSKoQQTonOTlk3hSzYIY0G5iDPqFDNcijGEEWLT9us0xVSusXWTCJSLJKO8koKUYjQBhOixtU6ZwpVrhtvIBZSLFOPFkoCSwgrwED23TY8ppFzTxz8TQLkIYOeVFIAU9iCH6P2hj5TCSjb+7UK5WCIglgSgih4PbIhBGxxsijGu8dpeymU8Ql5Jwa3oAUCGGLy1QaZognJxjp9akBRLQjAV3QVeiDFbGl6KflAu8kxeC9JeSQm1oiuAhRi5mYGlGAHlIoXv7yqUeeHwK9pghRj/AY6UYiQYbqFceuPMKykKKhonhN2eAUoKGyDcQrn0wq1YEjRUNEYI62MOEClsQXAL5bIJ915JUVHR/kNIHM30n0IChBSUSwcTiSUBoRas8RtC6jyJiqGASEG5NDOhV1IQasEamIXzVi+lYiggUlAu60wtlgSEWrDGVwjZpR0qhgIiBeVSwYdXUhBqwRofIaR2hgpUDAVECsplhTexJCDUgjWThxAXS4KKoYBIQbkkePVKCkItWDNtCCdmMUqGAiIF5eJfLAkItWDNhCFcmcUoGQqIFFstFwyvpCDUgjUThXAolgQVQwGRYmvlAiSWBIRasGaKEI7NYpQMBUSKbZQLmFdSEGrBGuch3JvFKBkKiBTbJhdEsSQg1II1U943390bqRgKiBRbJBdUr6Qg1II17kJMJZYEFUMBkWJL5AItlgSEWrDGUYgpzWKUDAVECv1ygfdKCkItWOMgxGQ7QwUqhgIihW65hCGWBIRasEY6xPRiSVAxFBAp1MolHK+kINSCNaIh/JjFKBkKiBRD5fLq+vvpn1/PU96Xb9FQGnoxMLEkINSCNXIhvJnFKBkKiBQD5XJ0K/fJfRS51NQRoFdSEGrBGpkQPsWSoGIoIFIMk0vslswnR7feeuKkPUMpCyRUsSQg1II1AiF8m8UoGQqIFIPk8uer53+UyeXV9Qtu2jOQBp8E55UUhFqwxjYEgFmMkqGASDFELke3/vr3X2dyeX71p44aNAgdYklAqAVrbEJ4OOfcgoqhgEgxaObyH8mB3FQu383/4b35/MfVXaNvJqfBK9M3glhTFYvv1pDxjJeLWcklP1n05hdQcpm+AcQemkURAnI5ujV/94l5cWvu+chL0HtCFRBmsdYMD4GzM1SgYiggUoycuWS8ul6dukwO5QLFwBCAYklQMRQQKazkcnTLs1yMFrdA1II1Q0KAmsUoGQqIFIHLxShxC0QtWNM7BK5ZjJKhgEgxTi6vrqdr6J5f9b+UTodbIGrBml4hoMWSoGIoIFKMnLncTw/ovjcHWO2C0Iv2qEixOQS8WYySoYBIMVIuz6+mp6L9T1wwetEeFSk2hAjBLEbJUECkGHvM5cXv5vPzPwNwC0Qv2qMiRUcIxHPOLagYCogUau/nEhgqUrSFCEcsCSqGAiIF5YKBihSNIcIyi1EyFBApKBcIQtnwulkbioB2hgpUFBRECsoFgaA2vnaqQxGiWBI0FBRGCsoFgAC3wCbKEUI1i1FRUAYjBeXin1C3whpFhIDNYjQUVAJCCsplcr71hYdYbt/SDcEVVCMIKSgXh0wsDzR8d/9IgAtqAAgpKBcRfG/HePgekfFAFJQ1CCkol4H43miDYNIRkQZhs7QHIQXl0sp0W95EG6WrQJsDBgXCZmkPQorg5SJRzt63MgVbJeWCBUKK0OUysJ69a6SrXbYv4hctboHYLO1BSBG4XNorGlUjLSDUgiVK3KJhKAxGirDl4sog028lCLVgiw63qBgKjBSUC8YGgVAL1qgIwRRibJlcfDe4FYRasEZFCKYQQ61cfDdtIAi1YI2KEEwhhhq5+G6KJQi1YI2KEEwhRthy4flPKFSEYAoxApcLz38ioSIEU4gRulx4/hMIFSGYQozg5QLRi/aoSKEiBFOIQblgoCKFihBMIQblgoGKFCpCMIUYlAsGKlKoCMEUYlAuGKhIoSIEU4hBuWCgIoWKEEwhBuWCgYoUKkIwhRiUCwYqUqgIwRRiUC4YqEihIgRTiEG5YKAihYoQTCEG5YKBihQqQjCFGJQLBipSqAjBFGJQLhioSKEiBFOIQblgoCKFihBMIQblgoGKFCpCMIUYlAsGKlKoCMEUYlAuGKhIoSIEU4hBuWCgIoWKEEwhBuWCgYoUKkIwhRjhy4UQAgnlQghxAuVCCHEC5UIIcQLlQghxAuVCCHEC5UIIcQLlQghxAuVCCHEC5UIIcQLlQghxAuVCCHEC5UIIcUL4cnl1/X3fTbDlxd/P5+fffeK7GXYc/W4+/6uf+26FBN/NQ6+or+cpvmMEL5ejW9770JbnV9NSeCtou7x6Lw3xU9/tsOfV9eAr6j7lIkHsFu99aEkc4SdPzIv3wt4wv55feGL+/er5j3w3xJr7CioK44MqcLn8+er5H4VeCq+uX0j+eH71gu+WWHB0680vTKKYwAcj2SnSUlHeCVsuR7f++vcK6jnl1XWMjxsrwh+MeMMMPsTzqxiT4LDlYv5DQz1nfDfH+Lix4c9Xgxfk/Te/CL6ivpv/w3vz+Y+9D0XgcjFq5HJ0K/jDFV/P52994bsRljy/+n74FZWfLHrT92BQLiDcD/t4bsLXPwr9lFd2KDT0ijq6NX/3iXlxy/tUmHKB4Oi+90qQ4OifA4/xdTJ9VFFRydEj31MXygWB7LNGAflJo1DJjoRqqCiDMBaUCwAvroe/T5Rz33dBW5EfrAA4XCEA5WJP+HJ5df188Mvm8xPp/qfiVuiQSz4Wz72fuqNc/HM/+AQmCXEB4iCiAMFX1P30gK7/Jd+Ui3fyS4sCP9Py6nr4GXK0VJT3saBcvPPdXINczIvfKbi0OyX4isrG4mfexyJ8uRBCIKFcCCFOoFwIIU6gXAghTqBcCCFOoFwIIU6gXAghTqBcCCFOoFwIIU6gXAghTqBcCCFOoFxIP15ejJa8/sHjca+xuBFdkW0VAYZyIf0oySWKTo6zC+WyVVAupB8vL+58mP307HYUnRv1GpTLVkG5kH4UcjFmb+TUhXLZKigX0o+yXA5nxz4f8xqUy1ZBuZB+lOVyEGVyWdx5LYqOX0pnMUvhvLyYCCT+2/9Lfnnig+wZT2/Oop1L/0a5bBOUC+lHw27R4Sw7vJv+oi6XndeyX6ZHZw6yR57YpVy2CMqF9KOQy6ObUeqIWCPJxORPu+k8pi6XKPr+Y/M0+13yyLtm8XEUUS5bBOVC+lE5FX02+Zf9aKWTcw1ySacs8Qzmw+KR+5TLNkG5kH6UF9F9lvzD4sbyhPR+spe0tlv04epvq0dmvyNbAuVC+pHvFsU7OvEeTvYPS1Okx3fXDugWf1s9kmeLtgrKhfRjecwlFkRpUpKSmoRyITUoF9KP1QHdWBWpODhzId1QLqQfxdmigyg6ZVqPuRzO1uTCYy7bCeVC+lFa57KXnfSpO1teAgAAALtJREFUny3Kfp+dEarOY3i2aCuhXEg/SnKJjZEsosvXuTxsWstSlQvXuWwllAvpR3X5f7qfU1mhm0xLEv5y/ZjL6pF/wWMu2wTlQvpRlsvyjFH52qJ0ChNPZRoO6CaPvM1ri7YOyoUQ4gTKhRDiBMqFEOIEyoUQ4gTKhRDiBMqFEOIEyoUQ4gTKhRDiBMqFEOIEyoUQ4gTKhRDiBMqFEOIEyoUQ4gTKhRDiBMqFEOIEyoUQ4gTKhRDihP8PDfVSfCZAiLsAAAAASUVORK5CYII=;" vertex="1" parent="1">
          <mxGeometry x="214" y="303" width="282.29" height="201.41" as="geometry" />
        </mxCell>
        <mxCell id="ob-IkZe3Byg3iUuScjMG-1" value="" style="shape=image;verticalLabelPosition=bottom;labelBackgroundColor=default;verticalAlign=top;imageAspect=0;image=data:image/png,iVBORw0KGgoAAAANSUhEUgAABFwAAAMDCAMAAACo2PFXAAABmFBMVEUAAAAAADoAAGYAOjoAOmYAOpAAZrYAv8QzMzM6AAA6AGY6OgA6Ojo6OmY6ZmY6ZpA6ZrY6kJA6kLY6kNtNTU1NTW5NTY5Nbm5Nbo5NbqtNjshmAABmOgBmOjpmOmZmZgBmZjpmZmZmZpBmkLZmkNtmtttmtv9uTU1ubk1ubm5ujo5ujqtujshuq8huq+R8rgCOTU2Obk2Obm6Ojk2OjquOq8iOq+SOyOSOyP+QOgCQOmaQZgCQZjqQZmaQkDqQkGaQkLaQtpCQttuQtv+Q27aQ29uQ2/+rbk2rjm6rjo6rq26rq46r5OSr5P+2ZgC2Zjq2kDq2kGa2kJC2tma2tpC2tra2ttu229u22/+2/7a2///HfP/Ijk3Ijm7Iq27Iq47IyKvI5P/I/8jI///bkDrbkGbbtmbbtpDbtrbb25Db27bb29vb2//b/7bb/9vb///kq27kq47kyI7kyKvk5Kvk5P/k/8jk/+Tk///r6+v4dm3/tmb/yI7/25D/27b/29v/5Kv/5Mj/5OT//7b//8j//9v//+T///+sg7xRAAAACXBIWXMAABkRAAAZEQGQh6VoAAAgAElEQVR4nO2di5sb53lfZ3nrohIpRgQZS6Qay4q4cWordFrXWoeOHfrC9KKl5MYVo6zjqoLJSLK9jJumYpZLUSGx+LczN1w/YAngmw/vOz+e8zyiltgLcAi8Z2e+GQDZAAAgAZn1DQAATYgLACSBuABAEogLACSBuABAEogLACSBuABAEogLACSBuABAEogLACSBuABAEogLACSBuABAEpLF5aiTnT1I9cNXuNIvP3g5y7KtC7c2fVsAXnCSxaWXT/TPUv3wpa/08c1syJm7m741AC80qeLS383n+VKiH770leZbMmO2rm/45gC80KSKy2G29VJ26qNEP33JKy3b8sqHg2LnKP9w0zcH4IUmVVz2slP/M8s2vK0wc6XFhsxoZ6j4y7nN3hyAF5pEcXl6NTtX/Jfmpy95pYdTGyv5Zza/CATw4pIoLofFBsTecJp7482JfE+lXBR5fDPfTzn9VnVoJ5/76/2bWXa+2Mz4rPhM9vLbw6M+5Veev5VvedQHgqa+dfGVltsqk5tOvez8j5v2BIBFJIrLXrHNcDhcXZ3YnOhVs9+bWmTNP/92sRabf09/dHjnzEf1N1S8cq2OS2/h+uz0lRY/lVUWADPSxCXfPjlXTne9sbE3HPN6+6M3PoRTpCb/wjeLv5wrvnJE2aPDicM95Q+b+dYTrvSQRRYAQ9LEpd4P2hvulxxOfHCpOorzSr4L9Hi3KkYehGyrPMst/8xWsUP05Z1qvaT4TLEm+9m1Oi6z33rylW76WDgAjEgSl+H6SLUtMZjYL6o2YXqjbYqqBEVCqiCMVmfyH1FsmRRbHwf134fbPFPfesKV9ogLgCFJ4jJctc3nvd4d2hvt/5ybvLj+ynmrI9V3jJdnqzP7g2894UqJC4AlSeIysXBSz3c9+YfDDZXhYkhegql1korP/+GH18o1lfEhovprgm894UpZcwGwJEVcir2c6VXYYSX2RgspU18wGZfqSHS9YDvdkuorg5+96EpNnjoJADUp4jJ5hGd8qsu4FVPP+JmJy53iopcv/OjuXv0Nw09UcQm+9YQrnd3Z6u+en3NyDACkIUVcxgsl4/XXcr+oPmgUnLo7dfj44sH4h5y0W/T8K90LnsXIbhLAxkgQl8mdnHygq62HMhN71ScmVmVnvmMck/po0QkLus+/0unT/2dP2AWApCSIy9RRmomzTrZ+crX+xHiTYubEt3Ei6ldmGS3KDg9Fz37rSVcaPHGRJRiAzdF8XOptjppRHfJuvDz8xPBMuP69TnnR5JZLuVv02c164aRYpj1bnDM3exLd8FtPvNKZl1zgeYsAG6T5uEwfpBk/F3lvYgV2fA5/WYGpDZYxxdbHCaf/T264LLjSw87szwOADdF8XGbOXRvtxxSZuDTxRRXl8u04LuVryRW88n791aMnLg6XY6a/9TlXWm7xVJxhuwVgkzQel+kdlLIpo/WUiU+Ur5uwdf7DQf2p0RHnD17KL893ZUbHhcYvuXBuzrc+50qLPayXil2s87xAN8Bmac1bi2z8pacAIArncemNtkh4phBAu3Afl2zrVv0SDBzsAWgTzuMy+YwhNlwA2oTzuEw8meii9U0BgFXwHpdBv3w71tOv8H6JAO3CfVwAoJ0QFwBIAnEBgCQQFwBIAnEBgCQQFwBIAnEBgCQQFwBIAnEBgCQQFwBIAnEBgCTIxOXhQ+tb0AgiGioeIhpGEBdfiGioeIhoGEFcfCGioeIhomEEcfGFiIaKh4iGEcTFFyIaKh4iGkYQF1+IaKh4iGgYQVx8IaKh4iGiYQRx8YWIhoqHiIYRxMUXIhoqHiIaRhAXX4hoqHiIaBhBXHwhoqHiIaJhBHHxhYiGioeIhhHExRciGioeIhpGEBdfiGioeIhoGEFcfCGioeIhomEEcfGFiIaKh4iGEcTFFyIaKh4iGkYQF1+IaKh4iGgYQVx8IaKh4iGiYQRx8YWIhoqHiIYRxMUXIhoqHiIaRhAXX4hoqHiIaBhBXHwhoqHiIaJhBHHxhYiGioeIhhHExRciGioeIhpGEBdfiGioeIhoGEFcfCGiMdje3ra+CU2gcnfYQFx8oaGxXWF9M+LRuDusIC6+0NAgLjAgLt6Q0NjeVqmLxN1hBnHxhYQGcYEC4uILCQ3iAgXExRcaGiptEbk7rCAuvtDQIC4wIC7eENHgPBcgLt4Q0VDxENEwgrj4QkRDxUNEwwji4gsRDRUPEQ0jiIsvRDRUPEQ0jCAuvhDRUPEQ0TCCuPhCREPFQ0TDCOLiCxENFQ8RDSOIiy9ENFQ8RDSMIC6+ENFQ8RDRMIK4+EJEQ8VDRMMI4uILEQ0VDxENI4iLL0Q0VDxENIwgLr4Q0VDxENEwgrj4QkRDxUNEwwji4gsRDRUPEQ0jiIsvRDRUPEQ0jCAuvhDRUPEQ0TCCuPhCREPFQ0TDCOLiCxENFQ8RDSOIiy9ENFQ8RDSMIC6+ENFQ8RDRMIK4+EJEQ8VDRMMI4uILEQ0VDxENI4iLL0Q0VDxENIwgLr4Q0VDxENEwgrj4QkRDxUNEwwji4gsRDRUPEQ0jiIsvRDRUPEQ0jCAuvhDRUPEQ0TCCuPhCREPFQ0TDCOLiCxENFQ8RDSOIiy9ENFQ8RDSMIC6+ENFQ8RDRMIK4+EJEQ8VDRMOI5uPyEODh9rb1LWg3jY+lBWy5+EJEY7C9bX0LGkHl7rCBuPhCRIO4AHHxhogGcQHi4g0RDeICxMUbIhrEBYiLN0Q0iAsQF2+IaBAXIC7eENEgLkBcvCGiQVyAuHhDRIO4AHHxhogGcQHi4g0RDeICxMUbIhrEBYiLN0Q0iAsQF2+IaBAXIC7eENEgLkBcvCGiQVyAuHhDRIO4AHHxhogGcQHi4g0RDeICxMUbIhrEBYiLN0Q0iAsQF2+IaBAXIC7eENEgLkBcvCGiQVyAuHhDRIO4AHHxhogGcQHi4g0RDeICxMUbIhrEBYiLN0Q0iAsQF2+IaBAXIC7eENEgLkBcvCGiQVyAuHhDRIO4AHHxhogGcQHi4g0RDeICxMUbIhrEBYiLN0Q0iAsQF2+IaKjERUTDCOLiCxENlakU0TCCuPhCRENlKkU0jCAuvhDRUJlKEQ0jiIsvRDRUplJEwwji4gsRDZWpFNEwgrj4QkRDZSpFNIwgLr4Q0VCZShENI4iLL0Q0VKZSRMMI4uILEQ2VqRTRMIK4+EJEQ2UqRTSMIC6+ENFQmUoRDSOIiy9ENFSmUkTDCOLiCxENlakU0TCCuPhCRENlKkU0jCAuvhDRUJlKEQ0jiIsvRDRUplJEwwji4gsRDZWpFNEwgrj4QkRDZSpFNIwgLr4Q0VCZShENI4iLL0Q0VKZSRMMI4uILEQ2VqRTRMIK4+EJEQ2UqRTSMIC6+ENFQmUoRDSOIiy9ENFSmUkTDCOLiCxENlakU0TCCuPhCRENlKkU0jCAuvhDRUJlKEQ0jiIsvRDRUplJEwwji4gsRDZWpFNEwgrj4QkRDZSpFNIwgLr4Q0VCZShENI4iLL0Q0VKZSRMOIleJy/Kud7uXvfjFxyT/udLv/8YuF37BBRKZSRENlKkU0jFgpLvvdgtdnL7jySdO3ag1EplJEQ2UqRTSMWCUuT3aufJz/cfm94QWPul/7ePDV7e47zd+ulRGZym2RhzMasFJc9rvvDoqiDDddjm+XnXmy85qDHSOJuGxXWN+MBpCQkNEwYoW4HN8u93+e3Ri25NmN10/8ho1CXFwhISGjYcQKcamrUjdmUGyyvPPkO8GC7kNYl+0h1jckHgWHh4YazU24ITFxedT95pwFXaN7QwHi4g3iEsNKcan2gvbHcem+Vi7oetg7Urg/RnGxviHxKDgMZDSMiNtyqRdhPByLVogLay7eENEwIi4u5SbL+AJLiIsrJCRkNIyIOVr0ZIe4NI1GWmSmUkTDiJjzXJ7dKM9zGdfGEpG4iGioTKWIhhGrxOVRN4/Jk50yMSUPOEO3aUQ0VKZSRMOINZ9bVG2tHN8uL/Cw4aIylSIaKlMpomHEms+KHi7uFhd8y0NbVKZSRENlKkU0jOD1XHwhoqEylSIaRhAXX4hoqEyliIYRxMUXIhoqUymiYQRx8YWIhspUimgYQVx8IaKhMpUiGkYQF1+IaKhMpYiGEcTFFyIaKlMpomEEcfGFiIbKVIpoGEFcfCGioTKVIhpGEBdfiGioTKWIhhHExRciGipTKaJhBHHxhYiGylSKaBhBXHwhoqEylSIaRhAXX4hoqEyliIYRxMUXIhoqUymiYQRx8YWIhspUimgYQVx8IaKhMpUiGkYQF1+IaKhMpYiGEcTFFyIaKlMpomEEcfGFiIbKVIpoGEFcfCGioTKVIhpGEBdfiGioTKWIhhHExRciGipTKaJhBHHxhYiGylSKaBhBXHwhoqEylSIaRhAXX4hoqEyliIYRxMUXIhoqUymiYQRx8YWIhspUimgYQVx8IaKhMpUiGkYQF1+IaKhMpYiGEcTFFyIaKlMpomEEcfGFiIbKVIpoGEFcfCGioTKVIhpGEBdfiGioTKWIhhHExRciGipTKaJhBHHxhYiGylSKaBhBXHwhoqEylSIaRhAXX4hoqEyliIYRxMUXIhoqUymiYQRx8YWIhspUimgYQVx8IaKhMpUiGkYQF1+IaKhMpYiGEcTFFyIaKlMpomEEcfGFiIbKVIpoGEFcfCGioTKVIhpGEBdfiGioTKWIhhHExRciGipTKaJhBHHxhYiGylSKaBhBXHwhoqEylSIaRhAXX4hoqEyliIYRxMUXIhoqUymiYQRx8YWIhspUimgYQVx8IaKhMpUiGkYQF1+IaKhMpYiGEcTFFyIaKlMpomEEcfGFiIbKVIpoGEFcfCGioTKVIhpGEBdfiGioTKWIhhHExRciGipTKaJhBHHxhYiGylSKaBhBXHwhoqEylSIaRhAXX4hoqEyliIYRxMUXIhoqUymiYQRx8YWIhspUimgYQVx8IaKhMpUiGkYQF1+IaKhMpYiGEcTFFyIaKlMpomEEcfGFiIbKVIpoGEFcfGGrse2TF1Sj9TQfl4fQVqynbxEvoEbjY2kBWy6+MNXY3v53Dln5V/729t85hC2X9kJc4iEuCSEu7YW4xENcEkJc2gtxiYe4JIS4tBfiEg9xSUiquPTvv9HJsq3zt9L8+BiIiy+ISwBxOYl7eVkqztxNcgUREBdfEJcA4nICvTwqtw4Ggy8/6GSnPkpxDREQF18QlwDispijTnap/vDx1excgmuIgbj4grgEEJeF9HcngnLobtOFuPiCuAQQl4UcdbZ+NvrL0+//6KBIzKXDTnYmv7j/wUtZdvqtg+oLq/A8vZpdL77m7MGvO1n2SuJVGuLiC+ISQFwW0ssrMXPRYXYhz0Z+8VG90lvmJ4jLX1Sfu978bZqAuPiCuAQQl4Xshcssh3lZ7g4+LzJy5tZg8Om1cmdpNi5ZdvFg8Pha4h0p4uIL4hJAXBayN1rOHZGHo9wc6WWjnFyaE5dL48+lg7j4grgEEJeFDOOSV6Lk0mhZt7877Eav2keajku9xTJnt6pJiIsviEsAcVnIcLdoKi5lL6qKFJQlCRd0x59LB3HxBXEJIC4LmdryqDZWgriUXVkQl+HFiSAuviAuAcRlIVOHohfEhS2XeIhLPMQlIclPopuKy4I1l6MOay5rQFziIS4JSXX6/6vDPNzvTMQlOFpUbeL0Mo4WrQFxiYe4JCTNExfvZdnpt39TvPDCtSzb+vE4LvV5Lverc1mKv90d9N/PhnEpmsR5LstCXOIhLglJ9JILR9eGL7lQnBc3tVg7cYZusclS8Af1msuZaxOfSwZx8QVxCSAuJ3P/ZpGR828N12iHyyiTzy0qN2HyTZnRgu7v7nSyrYspF1wGxMUbxCWAuDTNYdp13BHExRfEJYC4NA1xWRHiEg9xSQhxqSle9PfUR0+/7+5VORdDXOIhLgkhLhWPi7XkPC6JD4M3CnGJh7gkhLiUFAfF/yrfcunfSX2sqkGISzzEJSGO4rIp5sWll53LA1OcXzPnxWi8QlziIS4JIS4F/d18e6WKy1FnM9tPDUBc4iEuCSEuBWVXqrhUf7YC4hIPcUkIcSkgLoYQlwDi0lbm7hZl1+usbGpZuQGISzzEJSHEpaR4lYcyLo9bdCyauMRDXBJCXErqQ9E/uenw7WcXsq1x5xGXAOLSVhafRLeBp2Q3x3aF9c2Ih7gEEJe2suD0/3svZxNP1/YPcWkC4pIQhUfnimg8cXF7W6UuxCWAuLQV4uIL4hJAXNrKSXH5zcZuRSzEpRGIS0IEHpyrMjcu/Q/+fXkG3VZrFl1U2kJcQojLSu6buJYlmReX/u7wFcNbcw4dcWkC4pIQ4lLSy7beLj+412nPSXQSaSEucyAuK7lv4lqWZNHp/xWc/r9piEsAcVnJfRPXsiSLnrgYfOgd4hIPcUkIcSl4enV0Yu7wLWZbAHGJh7gkJNXYb59ImutcknlrLnvZuYPRRxu9NREQl3iIS0ISDfrJbfEXl6NOdvqtDz//7OfX2vPkIuLSAMQlIcni8i+LcRiX4ihR/cTFtzd9e9aGuMRDXBJCXGq+LN5mNt98ac85usSlAYhLQohLeyEu8RCXhHiJy+Hpbwzf6/DxD166Hn7B4KhzbtDfLc+jvZYtWHXdqxdMiq9dCHHxBXEJIC4ny64al/F593tZdnJc8i9YcBptTFz6n9e0ZseIuMRDXBLiKC51GJ5efXlhXErywiw6oLN+XEYLull7XueSuMRDXBLiJy4XOtXWSO/UXz4vLgtP0F87LodZRlyMIC4BxOVk2ZXj8mrVjP7uuV4Zl/6dTrZ1sczI4zey7OKn9W5R2YGz96odo6PO1P7RunEpnhT907Y8pWgEcYmHuCTEy0l0h9mlXlmGo871Mi5Pq1fMPlO+w2rx0YWpuPz2apmi3vQpb+vGZeL0/xZBXOIhLglxFJdqK6R36qMyLnvZ2buDx7vFYaG9LN+AudfJ6gXdareo7MjsHtLeaN9m1bi0Zl9oAuISD3FJiJ/doktlKfK9okFv9PaH5f/qt4bvTcelTNHMXtHacSnfiL51EJd4iEtCHMWl3Mc5zMNSxGW4Y5NvoBwOl1em4lL+ObNXtP6Cbq89LxE1hrjEQ1wS4ikuxX97eT2WiksRluC40dpx6e9mr7bm/JYhxCUe4pIQT3F5evXsb6+eGywZl3yXaHavKGJBl0PRZhCXAOJysuwaccnb8MNiLXdmzeXp1XlrLsX/3p9dKSEuLYS4BBCXk2XXicthNdnh0aJzB4P7M0eL8q/eemn2bLq1d4u+/HxMa3aPiEs8xCUhruKSb0AUUajOc7k62oyoPrwws1tUXDy7CssTF1sIcQkgLifLrn6ey6DYRinOzQ3P0L2ZZRdn11zmHT8mLi2EuAQQl5Nl07/MZb0WszIL4lLvFP3i5/+BNZeNQlwCiMtK7s3/zP6duc9vfD5z4/JrnhVtBXEJIC4ruTf9E/u79QvATD6febnYPOdZ0fWuWAsgLvEQl4S0NS6DvexM+dJ1zcQl/2kffnZt66ef7bboVF3iEg9xSUhr47I+889zuV4tJ7fpWUbEJR7ikhDiUlCdsterzrWZOtB0/Kud7uXvfjH95Y+676a8gctCXOIhLglxNfabYWFcyq7MHIPa7xa8PvXVz24QlwYhLgHEpa0sfMmF8rUdpl/a5cnOlY/zPy6/N/nVeXCIS3MQlwDi0lbmL+heqrdfpt+Ifr/MyKOpTZdH3W8SlwYhLgHEpa0seK/oswf93eziZ7vZxG7R8e0rnwyK/aDXxqsuz268/oC4NIhxXHzyYmq0n7kn0fWKc+cOZw9o11WpG1Oxf+WT2bg8hLZiPX2LeAE1kgz7plnwXtE/zzdY7l+bfiP6OXF5svPuwElcVn4IQoD19C3iBdRIMesbZ4UnLua7QOX/90dxOb6d58bJbpHIVie7RXN4MTXaz0pxmd1yeVAcOCIuTcKCbgALuiu5b+JaluTkZ0VPvVhUEJcnO+8MiEuzEJcA4rKS+yauZUnmxuXO3Je5DI4WPejWTKzwmuHqX3V9iEsAcVnJfRPXsiTz31pk/mvozp7nQlyah7gEEJeV3DdxLUsy/72i57/w1KPu5ffyfaGZ3SB2i5qEuAQQl5XcN3EtS7LSe0WPn1s0cSYdcWkS4hJAXJ5j6/YI1UrvFT1+VjRxSQRxCSAuJ8u2Ki6jV/ZuFcQlHuKSkGRx+bPFOIzLui/2bQpxiYe4JIS4VBxdzS68WfGNtmSGuMRDXBJCXEqK1/tu3av/E5d4iEtCvMTl8PQ37tYfPv7BS/NeaXv0pmiDp9eybP6bnh0u8xrd81/PJds6z5aLCcQlgLicLLtqXLLRmSZ781/GfxyX/AsWvEb/unGZ886wLYC4xENcEuIoLvUBm6dXX14Yl5K8MIsO7awfl9bsC01AXOIhLgnxE5cLnWrjoXfqL58Xl4VHdtaNS7VF1DaISzzEJSF+4vJq1Yz+7rnwjejfyLKLn9a7ReXLxZ29V+3HHHUuTf+UNddcemu+NawpxCUe4pIQLyfRHWaXeuV+0VHnejnpxaptzpmPyhe4zbkwFZffViem9KZPfls7LoM7U69A1w6ISzzEJSGO4lJthfROfdSr3v7w7N3B493isNBelm/A3Otk9YJutVtUnlM7u4e09prLGy8VyXq55Hxb9pCISzzEJSF+dosulaXI94rKfZR6ibX4X/l2QsWey1RcyhTN7BXFHC3iPBcriEsAcTlZdvW4lPs4RR6KuAyXb/MNlMPh8spUXMo/Z/aK1l/Q/YdfjPlfnOeyUYhLAHE5WXaNuBT/7eX1WCouRViC40Zrr7ncvzvnQu8Ql3iIS0I8xeXp1bO/vXpusGRc8l2i2b2iiEPRPCvaDOISQFxOll0jLnlJfljUYWbNpX7G8syaS/G/92eTwEl0LYS4BBCXk2XXicthtZoaHi06dzC4P3O0KP/qrZdmz6Zjy6WFEJcA4nKy7DpxeXq1fEJidZ7L1dGhm+rDCzO7RfOeEHQ4POJzUmPmv1f01q3fzLncNcQlHuKSEEfnuQyKbZSiCuEZujez7OLsmsu8zY1149L/wdc5FG0FcQkgLifLpn+Zy3VfPY7zXHxBXAKIy0ruzf/M/p01nw80b7foy88/n/eOi74hLvEQl4S0NS7FS8eVGy6HE9scy8VmhfeK9g1xiYe4JKStcRnsZWfKE9+IS9shLgHEZSX3TVzLksyPS//+G51s6/yttpz7P3D2r7o+xCWAuKzkvolrWZK5cXl8rd76adEJL67+VdeHuAQQl7Yy/32Lsq1XfvGLX9zstOdgEXFpAOKSEJEH6CrMfyW6U9VTFx+36KW6Re474hJAXNrK3NP/R4vBh1lr3ntR5L4jLgHEpa2c/MTFFj2HUeS+Iy4BxKWtEBdfEJeANeLikyT3mWfYLfIFcQkgLm1lwYJutb3SpvdeFLnviEuA5T0r8qgyYtGh6Lc+/PyzDzgUvXGISwBxWQFXN3juSXTVeyNxEp0BxCWAuKyAqxu84PT/D4q3Ljr9VlsWXAbO/lXXh7gEEJcVcHWDp+PS323Nm6DN4upfdX2ISwBxWQFXN3g6LuWh5xYdf57A1b/q+hjHxSeW/yJ2170Wrm7wbFy2fkZcLCEuc7D8F7G77iXx+k83CHeLstNvfr2zdeHNId9oy7JLCx4Gy2AalwYRuTv8a7jt8iBY0J18tSleQ9cA4uIK/xonrpP5isvgsx+w5WIJcXGFf402xWXQqicUTeD/YbAUxMUV/jVaFpf+mu9SYov/h8FSEBdX+NdYJy6Pb3aybOvi5Dt7lG+CtvCvE+zVJ9YO37/+JHg7V18QF1f411gjLr+uT8Dfent82abiwm6RIcTFFf41Vo/LYZYVGy1f3ln2HUKmYMulvRAXV/jXWDku5blsJUedNbYiIuPCG9EbQlxc4V9j5bj0xi+jUn7YO/W317JTPy33gx5fy7b+ePg+9P3ds58Wf5/+9tgtF96I3g7i4gr/GiufRLc33i8pA9E79UdZdvZ3RVyqV0O4MIpLlYBLc7997TUXTqIzg7i4wr/GqnGZXKp9WhwX7pUvrFLX5OLB4F6WjeJy9m7//ZkXo9wbpWG93SLeiN4O4uIK/xqr7hY9nTjRpAxNtZtUfHjUKT/VG8WlqM7Tq83GpZX4fxgsBXFxhX+NVePS352MS7nlcn1QxeWw2gMar7kU2zhBXCIXdFuJ/4fBUhAXV/jXWD0uk2suFnEp3oj+1EdPv393BUtj/D8MloK4uMK/RvzRog3HpXwj+jwuLXrx/xY8DJaCuLjCv0b0eS7juARrLinikkflzF/lV9y/06JX6Pb/MFgK4uIK/xrRZ+iO49LfzV49GNzrJI1Lka7qOQB7SywJO8H/w2ApiIsr/Gus8dyie8PnFpXnx43jMnrXj4RxKZd8qrjUG0ptwP/DYCmIiyv8a6zzrOgv7+QVOV0/K3oiLuV6yJm/6VxKF5eJV+lu0XMY/T8MloK4uMK/RvMvc3nY2EorcfEFcXGFf40G43LUOXW32HppbKF10RvRV1nhjeg3jYiGikfrNGJu8PDJRBdnLp98Ye2VXqRh/oLu2YMyLo9bdCy6dQ+D+YhoqHi0TiPqBvfLtZi3Zy9uNC71oeif3OSN6DeOiIaKR+s0XN3gxSfR8Ub0FohoqHi0TsPVDV5w+v+9l3kjehNENFQ8RDSM4ImLvhDRUPEQ0TCCuPhCREPFQ0TDiCAu/ftvvvmNWxY3JQ6Rh4GIhoqHiIYRs3Gpn15wpkUvtlAh8jAQ0VDxENEwYiYuRVsuvPn1Fr127hCRh4GIhoqHiIYRM3HpVafkxpw999CG7W2jK24WEQ0VDzONyLH2wXRcRq+B16Lz/mtEfseIaKh4iGgYMR2X0RMV13ozNlNEHgYiGioerdNwdYMXxKVFT4eucfWvuj4iGioerdNwdbi5d90AABVSSURBVIOJiy9ENFQ8Wqfh6gYTF1+IaKh4tE7D1Q0mLr4Q0VDxaJ2GqxtMXHwhoqHi0QKNxl/msjmCuHxYvkX0Z8MPeK/ozSKioeLhX6P519Btjtm4ZDO0ZgPG/8NgKUQ0VDz8a2xv/91iiEsz+H8YLIWIhoqHf432xKXF+H8YLIWIhoqHfw3isgH8PwyWQkRDxcO/xjpxeXyzk2VbFyfXU6t3QFv01wkOV3iNbuLiCxENFQ//GmvE5dfDt3OdeJ1/4nIS/h8GSyGioeLhX2P1uMy8Ef2KEJf2IqKh4uFfY+W4PL06fE+PtZ6dTFzai4iGiod/jZXj0hu/VFP5Ye/U317LTv10+Eb0W39cvMV89Ub0Zz8t/j797cSlvYhoqHj411j5JLq98ZuRFRnJ4/JHWXb2d0Vcqte4vTCKS7U0M/2yccSlvYhoqHj411g1LpNLtU+vnj3IN1+K2tQ1uXgwuJdlo7icvdt/f+Zl44hLexHRUPHwr7HqblEZlJoyNNVuUvHhUaf8VG8Ul6I6k19fQFzai4iGiod/jVXj0t+djEu55XJ9UMXlsNoDGq+5FNs4xGXQhofBUohoqHj411g9LpNrLsRlKfw/DJZCREPFw79G/NEi4vJc/D8MlkJEQ8XDv0b0eS7juARrLsSlxv/DYClENFQ8/GtEn6E7jkt/N3v1YHCvQ1xm8f8wWAoRDRUP/xprPLfo3vC5ReX5ceO4DN/L+TlxqVmiMcTFFyIaKh7+NdZ5VvSXd/KKnK6fFT0Rl+IM3ezM33QuEZdp/D8MlkJEQ8XDv0bzL3N5uP5bOc9AXHwhoqHi4V+jwbgcdU7dLbZexseqIyEuvhDRUPFonUbMDR4+mejizOWjPaHldobGEBdfiGioeLROI+oG98u1mLdnLyYurXsYzEdEQ8WjdRqubjBx8YWIhopH6zRc3WDi4gsRDRWP1mm4usHExRciGioeIhpGEBdfiGioeIhoGEFcfCGioeIhomEEcfGFiIaKh4iGEcTFFyIaKh4iGkYQF1+IaKh4iGgYQVx8IaKh4iGiYQRx8YWIhoqHiIYRxMUXIhoqHiIaRhAXX4hoqHiIaBhBXHwhoqHiIaJhBHHxhYiGioeIhhHExRciGioeIhpGEJeGrt0jpv8ghlfeHCIaRhCXZq7cJab/IoZX3hwiGkYQl2au/M/8QVziEdEwgrg0c+XWJZkDcYlHRMMI4tLMlVuXZA7EJR4RDSOISzNXbl2SORCXeEQ0jCAuzVy5dUnmQFziEdEwgrg0c+XWJZkDcYlHRMMI4tLMlVuXZA7EJR4RDSOISzNXbl2SORCXeEQ0jCAuzVy5dUnmQFziEdEwgrg0c+XWJZkDcYlHRMMI4tLMlVuXZA7EJR4RDSOISzNXbl2SORCXeEQ0jCAuzVy5dUnmQFziEdEwgrg0c+XWJZkDcYlHRMMI4tLMlVuXZA7EJR4RDSOISzNXbl2SORCXeEQ0jCAuzVy5dUnmQFziEdEwgrg0c+XWJZkDcYlHRMMI4tLMlVuXZA7EJR4RDSOISzNXbl2SORCXeEQ0jCAuzVy5dUnmQFziEdEwgrg0c+XWJZkDcYlHRMMI4tLMlVuXZA7EJR4RDSNWisvxr3a6l7/7xfiCr/682738rS8Wf8fmIC6zEJd4RDSMWCku+92C10d/f7JTXvCah7oQl1mISzwiGkasEpcnO1c+zv+4/F799+Pb3W9/MfjqO913UtyyFSEusxCXeEQ0jFglLvvdd/M/H402XZ7dKD96svP64u/ZGMRlFuISj4iGESvE5fj2lU8GRVJmdoOCC0wgLrMQl3hENIxYIS51ROrGjHnUndpyebgK1m/VvoCVHEoN65LMYXWNBjG98uYw02hits2Jj8vx7dEiTMkq/4TWEVnEqg8F4hL+ixheeXMQlxhWiku1hbI/HZf9iPXc7e1/ccjq28JO47L2/RKPyP6EiIYRsVsux/vdiOVc4pIQ4hKPiIYRkXE5vt2NOYeOuCSEuMQjomFE3NGir27EneNCXBJCXOIR0TAi5jyXvDOXvxd17cQlIcQlHhENI1aJy6Pu5feKU/7fHV6wP/5wPYhLQohLPCIaRqz53KJy36h+alHEk4uIS0KISzwiGkas+azoMi6PusRl6GFdkjkQl3hENIywfT0X4pIQ4hKPiIYRxCWEuMQjMpUiGkYQlxDiEo/IVIpoGEFcQohLPCJTKaJhBHEJIS7xiEyliIYRxCWEuMQjMpUiGkYQlxDiEo/IVIpoGEFcQohLPCJTKaJhBHEJIS7xiEyliIYRxCWEuMQjMpUiGkYQlxDiEo/IVIpoGEFcQohLPCJTKaJhBHEJIS7xiEyliIYRxCWEuMQjMpUiGkYQlxDiEo/IVIpoGEFcQohLPCJTKaJhBHEJIS7xiEyliIYRxCWEuMQjMpUiGkYQlxDiEo/IVIpoGEFcQohLPCJTKaJhBHEJIS7xiEyliIYRxCWEuMQjMpUiGkYQlxDiEo/IVIpoGEFcQohLPCJTKaJhBHEJIS7xiEyliIYRxCWEuMQjMpUiGkYQlxDiEo/IVIpoGEFcQohLPCJTKaJhBHEJIS7xiEyliIYRxCWEuMTz8KHhlTeHiIYRxCWEuMQjMpUiGkYQlxDiEo/IVIpoGEFcQohLPCJTKaJhBHEJIS7xiEyliIYRxCWEuMQjMpUiGkYQlxDiEo/IVIpoGEFcQohLPCJTKaJhBHEJIS7xiEyliIYRxCWEuMQjMpUiGkYQlxDiEo/IVIpoGEFcQohLPCJTKaJhBHEJIS7xiEyliIYRxCWEuMQjMpUiGkYQlxDiEo/IVIpoGEFcQohLPCJTKaJhBHEJIS7xiEyliIYRxCWEuMQjMpUiGkZYx8UnIh4p7rIlEZlKEQ0jiMs8RDxS3GVLIjKVIhpGEJd5iHikuMuWRGQqRTSMIC7zEPFIcZctichUimgYYR0X68XbebCgG4/IVIpoGEFcQohLPCJTKaJhBHEJIS7xiEyliIYRxCWEuMQjMpUiGkYQlxDiEo/IVIpoGEFcQohLPCJTKaJhBHEJIS7xiEyliIYRxCWEuMQjMpUiGkYQlxDiEo/IVIpoGEFcQohLPCJTKaJhBHEJIS7xiEyliIYRxCWEuMQjMpUiGkYQlxDiEo/IVIpoGEFcQohLPLbPyW4MEQ0jiEsIcYnF/iUfGkFEwwziEkJcYhGZShENM4hLCHGJxMOrVTWAiIYdzcfl4Qp4jcsqDpWHdUnmsLpGU4ym0uoGNIOlRuNjaQFbLiFsuUQi8itfRMMO4hJCXGIRGUoRDTOISwhxiUVkKkU0zCAuIcQlHpGZFNEwgriEEJd4RJYkRTSMIC4hxCUekakU0TCCuIQQl3hEplJEwwjiEkJc4hGZShENI4hLCHGJR2QqRTSMIC4hxCUekakU0TCCuIQQl3hEplJEwwjiEkJc4hGZShENI4hLCHGJR2QqRTSMIC4hxCUekakU0TCCuIQQl3hEplJEwwjiEkJc4hGZShENI4hLCHGJR2QqRTSMIC4hxCUekakU0TCCuIQQl3hEplJEwwjiEkJc4hGZShENI4hLCHGJR2QqRTSMIC4hxCUekakU0TCCuIQQl3hEplJEwwjiEkJc4hGZShENI4hLCHGJR2QqRTSMIC4hxCUekakU0TCCuIQQl3hEplJEwwjiEkJc4hGZShENI6zj4hMRjxR32ZKITKWIhhHEZR4iHinusiURmUoRDSNs49IgIu+7KaKhMpUiGkYQF1+IaKhMpYiGEcTFFyIaKlMpomEEcfGFiIbKVIpoGEFcfCGioTKVIhpGEBdfiGioTKWIhhHExRciGipTKaJhBHHxhYiGylSKaBhBXHwhoqEylSIaRhAXX4hoqEyliIYRxMUXIhoqUymiYQRx8YWIhspUimgYQVx8IaKhMpUiGkYQF1+IaKhMpYiGEcTFFyIaKlMpomEEcfGFiIbKVIpoGEFcfCGioTKVIhpGEBdfiGioTKWIhhHExRciGipTKaJhBHHxhYiGylSKaBhBXHwhoqEylSIaRhAXX4hoqEyliIYRxMUXIhoqUymiYQRx8YWIhspUimgYQVx8IaKhMpUiGkYQF1+IaKhMpYiGEcTFFyIaKlMpomEEcfGFiIbKVIpoGEFcfCGioTKVIhpGEBdfiGioTKWIhhHExRciGipTKaJhBHHxhYiGylSKaBhBXHwhoqEylSIaRhAXX4hoqEyliIYRxMUXIhoqUymiYQRx8YWIhspUimgYQVx8IaKhMpUiGkYQF1+IaKhMpYiGEcTFFyIaKlMpomEEcfGFiIbKVIpoGEFcfCGioTKVIhpGrBSX41/tdC9/94sTLrBDZCpFNFSmUkTDiJXist8teP2EC+wQmUoRDZWpFNEwYpW4PNm58nH+x+X3Fl5giMhUimioTKWIhhGrxGW/+27+56PxlkpwgSEiUymioTKVIhpGrBCX49tXPsn/9+zGa18suMASkakU0VCZShENI1aISx2ROinzLih5aMP2ttEVN4uIBkTS4IjbIRMXACEaHHE7VopLtbayP47LzAWWiNwfIhoqHiIaRjS/5WKEyMNAREPFQ0TDCOLiCxENFQ8RDSNkjhaJPAxENFQ8RDSMkDnPReRhIKKh4iGiYcQqcXnUvfze4MlOWZT5Fxgi8jAQ0VDxENEwYs3nFtW7Qo6eWyTyMBDRUPEQ0TBizWdFD9dy/TwrWuRhIKKh4iGiYYTM67mIPAxENFQ8RDSMIC6+ENFQ8RDRMIK4+EJEQ8VDRMMI4uILEQ0VDxENI4iLL0Q0VDxENIwgLr4Q0VDxENEwgrj4QkRDxUNEwwji4gsRDRUPEQ0jiIsvRDRUPEQ0jCAuvhDRUPEQ0TCCuPhCREPFQ0TDCOLiCxENFQ8RDSOIiy9ENFQ8RDSMIC6+ENFQ8RDRMIK4+EJEQ8VDRMMI4uILEQ0VDxENI4iLL0Q0VDxENIwgLr4Q0VDxENEwgrj4QkRDxUNEwwji4gsRDRUPEQ0jiIsvRDRUPEQ0jJCJCwD4grgAQBKICwAkgbgAQBKICwAkgbgAQBKICwAkgbgAQBKICwAkgbgAQBKICwAkgbgAQBKICwAkwX1cHv3hf/64/vCr//on7875iic7rw+Ob1/5ZDB49p1u9/W5P2X/8nujr7WhGY9H3XnfuXm++uudbvfyt/7fxEXVTV/01wns74sxMR5e7gu/+I9Lt/vaF9WH+925d+d4KPMv6L4z96fYP6Cb8XDygP7HfCQLLn9vfFkb4xLl4eS+cEwb4lI/GJ/d+ObCoSzJHwfvLfgp9g/oZjx8PKBzl+KX/b/+cn4ln4P9fTEkzsPHfeGZFsTlT3eq3+IPrvy35w3lcNsgwP4B3YyHiwf0sxv1v2Z+kxf9Wj8B+/uiJtLDxX3hmhbE5dvVrB3ffv1BeXce/3In300ux++rP89/9/xTvTvxqNjAfe331Q7Fk52p/Qr7B3QzHi4e0A/G+2zlhw+u/J/vdK/8j3L/4avvdC//l+EOXl7Jfyr+Pv3t9vdFTaSHi/vCNS2IyzsPykfjk513y6EsVjtzvvZJcVHx0Z9ODeU/3yhH+MHlqT0L+wd0Mx4uHtD749tU/ns+uPKf8hv8/4uhnDY5vl0tabwz99vN4xLp4eK+cE0b4lL99n5w5ZNyKPe7r308+Op2cThlv5v/4v/9TrdeCK12J8qHzOyexX53iGFcGvDw8ICeXOJ8ViTwQbe6qeUUFibd7mgoX/v4+O+73u6LilgPD/eFb9oQl3LC8r2JQTGUz26UD4nif092ql/u00NZjvDM3oSDB3QzHh4e0M9ujIesvL3V7kXx4YzJ8e1iWie/vsD+vqiI9fBwX/imDXEp9w2Ku7IYyuHGdP6L/dFwWWJqKMs/Z/YmHGyKN+Ph4QE9uTVV3chqCanco5syqc/amY2L+X1REevh4b7wTSviUvy3X/5qWWIoi4EMjrfYP6Cb8fDwgK5+j1eUv+JbG5c4Dw/3hW9aEZf8bv3nG8WK21JDme9KzO5NOHhAN+Ph4gEdHGVpZ1xiPVzcF65pRVzyx+N/L+7JmbWK+t6eWaso/vf3M3sTDh7QzXi4eEDPnh8yHspgrcJ1XCI9XNwXrmlHXB51u6N7f+ooy+tfDP7vzFGW/Ksv/8nsWWj2D+hmPHw8oGfObB0P5fHt7rcnjns5j0ukh4/7wjPtiMuzG+WRher8kBvlkYbq7p48G2E0lPnFs8/MsX9AN+PxaHigxfZx/fvhc3LK88rGQ1mfH9JtSVziPJzcF45pR1zy3+0Tv1omzmz96/x3z+xaxdRKXY39A7oZDy8P6H/Nb3v3D+tnE08MZXFma/dr/3vnnXbEJcrDy33hF/dxWYPZR0Fbaa3HowXP6W4bKh5WCMbl+Jcav0ta6PFk58rHxW/9YIurZah4GCMXl+J5IOUv/NFWazs3XFvpMXwSzrdmLm+TQ4GKhzFycRnsd79WvuRb2x8IrfQ4Ltcwvjd7cascClQ8bNGLCwC4gLgAQBKICwAkgbgAQBKICwAkgbgAQBKICwAkgbhI0r//RifLts7fsr4h8AJDXBS5l5el4sxd69sCLyzERZBeHpVbB4PBlx90slMfWd8aeFEhLnocdbJL9YePr2bnTG8LvMAQFzn6uxNBOWTTBawgLnIcdbZ+NvrL0+//6KBIzKXDTnYmv7j/wUtZdvqtg+oLq/A8vZpdL77m7MGvO1n2Cqs00AzERY5eXomZiw6zC3k28ouP6pXeMj9BXP6i+tz1zd9mUIS4yLEXLrMc5mW5O/i8yMiZW4PBp9fKnaXZuGTZxYPB42vsSEEzEBc59kbLuSPycJSbI71slJNLc+Jyafw5gGiIixzDuOSVKLk0Wtbt7w670av2kabjUm+xzNmtAlgD4iLHcLdoKi5lL6qKFJQlCRd0x58DiIa4yDG15VFtrARxKbuyIC7DiwHiIC5yTB2KXhAXtlwgPcRFjqmT6KbismDN5ajDmgskgLjokcfi1WEe7ncm4hIcLao2cXoZR4sgAcRFkHtZdvrt3xQvvHAty7Z+PI5LfZ7L/epcluJvdwf997NhXIomcZ4LNAVxUeTo2vAlF4rz4qYWayfO0C02WQr+oF5zOXNt4nMAsRAXTe7fLDJy/q3hGu1wGWXyuUXlJky+KTNa0P3dnU62dZEFF2gG4gIVh6zjQrMQF6ggLtAwxAUqiAs0DHGBCuICDUNcoIK4QMMQFwBIAnEBgCQQFwBIAnEBgCQQFwBIAnEBgCQQFwBIAnEBgCQQFwBIAnEBgCQQFwBIAnEBgCT8Gy/CbNRp4ee0AAAAAElFTkSuQmCC;" vertex="1" parent="1">
          <mxGeometry x="470" y="305.36" width="276" height="202.1" as="geometry" />
        </mxCell>
        <mxCell id="ob-IkZe3Byg3iUuScjMG-4" value="&lt;b&gt;A&lt;/b&gt;" style="text;html=1;align=center;verticalAlign=middle;whiteSpace=wrap;rounded=0;" vertex="1" parent="1">
          <mxGeometry x="-49" y="308.41" width="60" height="30" as="geometry" />
        </mxCell>
        <mxCell id="ob-IkZe3Byg3iUuScjMG-5" value="&lt;b&gt;B&lt;/b&gt;" style="text;html=1;align=center;verticalAlign=middle;whiteSpace=wrap;rounded=0;" vertex="1" parent="1">
          <mxGeometry x="214" y="308.41" width="60" height="30" as="geometry" />
        </mxCell>
        <mxCell id="ob-IkZe3Byg3iUuScjMG-6" value="&lt;b&gt;C&lt;/b&gt;" style="text;html=1;align=center;verticalAlign=middle;whiteSpace=wrap;rounded=0;" vertex="1" parent="1">
          <mxGeometry x="445" y="303" width="60" height="30" as="geometry" />
        </mxCell>
      </root>
    </mxGraphModel>
  </diagram>
</mxfile>
